<?xml version="1.0" encoding="UTF-8"?>
<svg width="92px" height="36px" viewBox="0 0 92 36" version="1.1" xmlns="http://www.w3.org/2000/svg" xmlns:xlink="http://www.w3.org/1999/xlink">
    <title>Get Started Element</title>
    <g id="Get-Started-Element" stroke="none" stroke-width="1" fill="none" fill-rule="evenodd">
        <g transform="translate(0.000000, 0.000000)">
            <ellipse id="Oval-Copy-17" fill="#1C2D41" fill-rule="nonzero" cx="2.30591387" cy="24.5060442" rx="2.21203877" ry="2.21265322"></ellipse>
            <ellipse id="Oval-Copy-17-Copy-4" fill="#1C2D41" fill-rule="nonzero" cx="58.4602931" cy="24.1350498" rx="2.21203877" ry="2.21265322"></ellipse>
            <ellipse id="Oval-Copy-17-Copy" fill="#1C2D41" fill-rule="nonzero" cx="89.5380723" cy="6.17554799" rx="1" ry="1"></ellipse>
            <ellipse id="Oval-Copy-17-Copy-2" fill="#1C2D41" fill-rule="nonzero" cx="30.1322009" cy="19.589037" rx="1" ry="1"></ellipse>
            <ellipse id="Oval-Copy-17-Copy-3" fill="#1C2D41" fill-rule="nonzero" cx="17.8430967" cy="9.7550227" rx="1" ry="1"></ellipse>
            <rect id="Rectangle-Copy-30-Copy-2" fill="#02B67C" fill-rule="nonzero" x="56.5845724" y="13.5736466" width="17.4505281" height="5.16285752" rx="2.58142876"></rect>
            <rect id="Rectangle-Copy-30-Copy-3" fill="#02B67C" fill-rule="nonzero" x="16.1533448" y="8.71071032e-15" width="17.4505281" height="5.16285752" rx="2.58142876"></rect>
            <rect id="Rectangle-Copy-31" fill="#FF1E59" fill-rule="nonzero" transform="translate(72.401599, 4.376491) scale(1, -1) translate(-72.401599, -4.376491) " x="62.3057586" y="0.915060358" width="20.191681" height="6.92286207" rx="3.46143104"></rect>
            <rect id="Rectangle-Copy-33-Copy-3" fill="#804DDF" fill-rule="nonzero" x="2.35882529" y="13.4427781" width="14.7469251" height="5.65455824" rx="2.82727912"></rect>
            <rect id="Rectangle-Copy-33-Copy-5" fill="#804DDF" fill-rule="nonzero" x="40.0949095" y="20.191681" width="10.3228476" height="4.42530645" rx="2.21265322"></rect>
            <rect id="Rectangle-Copy-33-Copy-4" fill="#027AFF" x="8.81401867" y="20.8182888" width="14.7469251" height="5.65455824" rx="2.82727912"></rect>
            <rect id="Rectangle-Copy-33-Copy-6" fill="#027AFF" x="76.9689751" y="17.7014157" width="14.7469251" height="5.65455824" rx="2.82727912"></rect>
            <rect id="Rectangle-Copy-34-Copy" fill="#FFB02F" fill-rule="nonzero" x="22.5129563" y="7.78821983" width="29.9854144" height="8.11306182" rx="4.05653091"></rect>
            <rect id="Rectangle-Copy-34-Copy-2" fill="#FFB02F" fill-rule="nonzero" x="2.98010779" y="30.8981535" width="14.255361" height="4.42530645" rx="2.21265322"></rect>
        </g>
    </g>
</svg>