<svg width="258" height="44" viewBox="0 0 258 44" fill="none" xmlns="http://www.w3.org/2000/svg">
<path fill-rule="evenodd" clip-rule="evenodd" d="M4.43355 8.38095C6.88213 8.38095 8.8671 6.50481 8.8671 4.19048C8.8671 1.87614 6.88213 0 4.43355 0C1.98497 0 0 1.87614 0 4.19048C0 6.50481 1.98497 8.38095 4.43355 8.38095Z" fill="#1C2D41"/>
<path fill-rule="evenodd" clip-rule="evenodd" d="M40.8606 32.127C43.3091 32.127 45.2941 30.2509 45.2941 27.9366C45.2941 25.6222 43.3091 23.7461 40.8606 23.7461C38.412 23.7461 36.427 25.6222 36.427 27.9366C36.427 30.2509 38.412 32.127 40.8606 32.127Z" fill="#1C2D41"/>
<rect x="13.6601" width="31.634" height="8.38095" rx="4.19048" fill="#02B67C"/>
<rect y="35.6191" width="45.2941" height="8.38095" rx="4.19048" fill="#FF1E59"/>
<rect y="11.873" width="18.0937" height="8.38095" rx="4.19048" fill="#027AFF"/>
<rect x="22.7669" y="11.873" width="22.5272" height="8.38095" rx="4.19048" fill="#804DDF"/>
<rect y="23.7461" width="31.634" height="8.38095" rx="4.19048" fill="#FFB02F"/>
<mask id="mask0" mask-type="alpha" maskUnits="userSpaceOnUse" x="54" y="9" width="24" height="35">
<path fill-rule="evenodd" clip-rule="evenodd" d="M54.353 9.05615H77.1139V43.6347H54.353V9.05615Z" fill="white"/>
</mask>
<g mask="url(#mask0)">
<path fill-rule="evenodd" clip-rule="evenodd" d="M61.2491 22.4233C61.3095 23.6118 61.2861 24.7796 61.4446 25.9231C61.7591 28.1926 63.3402 29.4541 65.7018 29.4429C68.0889 29.4318 69.7668 28.1201 69.923 25.8183C70.0796 23.5125 70.0789 21.178 69.905 18.8739C69.7234 16.4659 68.0957 15.1597 65.6996 15.156C63.2883 15.1521 61.7528 16.4443 61.4524 18.8419C61.303 20.0347 61.3109 21.2465 61.2491 22.4233M54.3529 19.3358C54.5211 18.3809 54.6146 17.4064 54.8698 16.4746C56.0199 12.2769 59.2468 9.63879 63.6813 9.17181C65.965 8.93142 68.2156 9.03022 70.3854 9.80811C73.9665 11.0921 76.0783 13.679 76.6699 17.3129C77.2345 20.7814 77.2983 24.32 76.6421 27.7771C75.6924 32.7818 72.028 35.5617 66.8509 35.5299C64.8284 35.5175 63.0043 34.965 61.3482 33.612C61.3299 33.9481 61.3084 34.1661 61.3076 34.3841C61.3004 36.3799 61.3293 38.3764 61.2824 40.3712C61.2427 42.0595 60.326 43.2486 58.8291 43.5305C56.3642 43.9949 54.7122 42.8772 54.4557 40.7704C54.4452 40.6835 54.3882 40.6019 54.3529 40.5179C54.3529 33.4573 54.3529 26.3965 54.3529 19.3358" fill="black"/>
</g>
<path fill-rule="evenodd" clip-rule="evenodd" d="M198.094 21.6307C198.024 20.664 198.028 19.6149 197.857 18.5936C197.486 16.3768 196.004 15.1857 193.738 15.1694C191.385 15.1525 189.801 16.2646 189.518 18.5215C189.274 20.4582 189.24 22.4563 189.425 24.399C189.641 26.6684 191.277 27.907 193.59 27.9397C195.921 27.9725 197.477 26.7833 197.886 24.5394C198.055 23.6135 198.028 22.6531 198.094 21.6307M198.001 32.1248C194.505 35.0121 188.716 34.2511 185.958 31.964C184.019 30.3554 182.907 28.2869 182.583 25.8793C182.196 23.0056 182.12 20.0949 182.667 17.23C183.543 12.6427 186.924 9.69039 191.664 9.19711C193.954 8.95888 196.211 9.05303 198.384 9.83724C202.297 11.2495 204.284 14.1513 204.813 18.0865C204.969 19.2516 204.964 20.4425 204.967 21.6218C204.98 25.584 205.001 29.5467 204.943 33.5082C204.911 35.6967 204.334 37.7671 203.037 39.5939C201.418 41.8722 199.126 43.1233 196.39 43.595C192.773 44.2187 189.253 43.967 186.053 42.0176C185.249 41.5275 184.513 40.8473 183.925 40.1159C182.737 38.6372 182.985 36.516 184.348 35.419C185.707 34.3258 187.853 34.5351 189.141 35.9277C190.069 36.9306 191.18 37.5452 192.55 37.7484C195.582 38.198 197.751 36.5321 197.996 33.5264C198.031 33.0959 198.001 32.66 198.001 32.1248" fill="black"/>
<path fill-rule="evenodd" clip-rule="evenodd" d="M138.813 18.5893C139.363 18.0238 139.914 17.459 140.464 16.8924C142.512 14.7803 144.563 12.6709 146.605 10.5535C147.434 9.69312 148.417 9.26688 149.64 9.39632C150.885 9.52826 151.847 10.0703 152.332 11.2333C152.839 12.4507 152.756 13.6338 151.902 14.7003C151.685 14.9721 151.433 15.22 151.179 15.461C149.046 17.4897 146.908 19.5147 144.771 21.5394C144.586 21.7141 144.392 21.8791 144.111 22.1306C144.386 22.3539 144.608 22.5175 144.811 22.7018C147.129 24.808 149.438 26.9253 151.764 29.0226C152.835 29.9874 153.36 31.1297 153.067 32.5586C152.82 33.7644 152.123 34.6196 150.899 34.9786C149.558 35.3724 148.315 35.1606 147.296 34.1839C146.318 33.2466 145.394 32.2559 144.446 31.2882C142.569 29.3709 140.692 27.4532 138.692 25.4105C138.672 25.7777 138.651 26.0106 138.648 26.2438C138.625 28.2101 138.672 30.1799 138.565 32.1418C138.457 34.1335 137.12 35.1974 135.002 35.1488C133.104 35.105 131.868 33.9005 131.767 31.9903C131.751 31.69 131.749 31.3887 131.749 31.0881C131.748 22.0849 131.747 13.0818 131.75 4.07859C131.75 3.66236 131.736 3.24085 131.794 2.83072C132.057 0.970926 133.338 -0.0404272 135.344 0.00123803C137.212 0.0401255 138.406 1.14175 138.58 3.00127C138.621 3.4382 138.643 3.8786 138.644 4.31734C138.648 8.80732 138.646 13.2974 138.646 17.7874V18.5324C138.702 18.5514 138.758 18.5703 138.813 18.5893" fill="black"/>
<path fill-rule="evenodd" clip-rule="evenodd" d="M216.652 19.257H224.739C224.743 17.7459 224.269 16.501 222.945 15.7459C221.444 14.8897 219.868 14.9117 218.388 15.7966C217.113 16.5586 216.633 17.7767 216.652 19.257M216.712 24.7643C216.486 26.5879 217.39 28.2952 218.895 28.9905C220.669 29.8106 222.905 29.4143 224.232 28.0413C224.491 27.7731 224.721 27.4743 224.999 27.2276C226.957 25.4885 230.09 26.3405 230.605 28.7609C230.843 29.8825 230.574 30.9161 229.881 31.8412C228.826 33.2486 227.42 34.1911 225.756 34.7397C222.894 35.684 219.971 35.7679 217.074 34.9752C212.92 33.8381 210.537 31.0101 209.961 26.8916C209.506 23.6415 209.47 20.3294 210.06 17.0752C210.859 12.6765 214.279 9.67252 218.808 9.1942C221.088 8.9533 223.33 9.05958 225.467 9.91786C229.236 11.4313 231.004 14.4031 231.474 18.2253C231.617 19.3904 231.65 20.5863 231.568 21.7568C231.425 23.7693 230.309 24.7465 228.254 24.7576C224.655 24.7772 221.056 24.7638 217.457 24.7643C217.205 24.7643 216.953 24.7643 216.712 24.7643" fill="black"/>
<path fill-rule="evenodd" clip-rule="evenodd" d="M95.7152 25.1371C93.769 25.1371 91.8169 25.0856 89.8694 25.1565C88.7202 25.1984 88.0827 25.8055 87.9687 26.6782C87.8156 27.8504 88.2798 28.6966 89.3944 29.0946C90.7729 29.5867 92.1757 29.5891 93.5302 29.0047C95.0335 28.356 95.9222 26.7516 95.7152 25.1371M95.7423 19.6132C95.849 17.7177 94.9768 16.209 93.4591 15.5517C91.6726 14.7779 89.482 15.1733 88.1558 16.5141C87.9259 16.7466 87.7244 17.0067 87.4898 17.234C86.2963 18.3904 84.5725 18.5816 83.2089 17.717C81.8819 16.8758 81.3973 15.2895 82.0081 13.7335C82.5155 12.4415 83.5 11.5464 84.6565 10.8375C87.2496 9.24797 90.1123 8.89539 93.093 9.16351C95.9214 9.41786 98.4023 10.3956 100.284 12.5715C101.791 14.3138 102.573 16.3873 102.659 18.6226C102.763 21.3254 102.805 24.055 102.541 26.7413C102.076 31.4699 98.5205 34.8014 93.7068 35.3621C91.0438 35.6723 88.4248 35.564 85.9268 34.5142C82.2976 32.9893 80.5028 29.7632 81.0946 25.9225C81.6608 22.2493 83.9783 20.1294 88.0752 19.7811C90.3487 19.5878 92.6456 19.6599 94.9319 19.6139C95.187 19.6087 95.4424 19.6132 95.7423 19.6132" fill="black"/>
<path fill-rule="evenodd" clip-rule="evenodd" d="M170.863 25.0495C168.867 25.0495 166.868 25.0016 164.873 25.0695C163.861 25.1042 163.248 25.7064 163.115 26.4962C162.936 27.552 163.295 28.3962 164.213 28.8332C165.599 29.4927 167.047 29.4943 168.472 28.973C170.096 28.3785 171.066 26.7393 170.863 25.0495M170.882 19.5095C170.999 17.6329 170.123 16.1134 168.607 15.4537C166.822 14.6769 164.63 15.0687 163.3 16.4075C163.086 16.6228 162.899 16.8639 162.685 17.0786C161.468 18.2953 159.675 18.498 158.293 17.5806C156.966 16.6995 156.502 15.0662 157.192 13.5114C157.845 12.0407 159.045 11.064 160.459 10.3594C163.466 8.86077 166.644 8.66431 169.901 9.32681C172.508 9.85708 174.619 11.1543 176.101 13.3563C177.151 14.9175 177.755 16.668 177.807 18.5117C177.884 21.2146 177.951 23.9406 177.686 26.6247C177.22 31.3553 173.665 34.6874 168.855 35.2459C166.192 35.5553 163.572 35.449 161.072 34.4021C157.439 32.8807 155.64 29.6586 156.23 25.8211C156.794 22.1482 159.11 20.031 163.207 19.6771C165.41 19.4868 167.637 19.556 169.854 19.5103C170.18 19.5036 170.507 19.5095 170.882 19.5095" fill="black"/>
<path fill-rule="evenodd" clip-rule="evenodd" d="M250.766 21.9136C252.74 24.4025 254.671 26.8546 256.624 29.2899C257.569 30.4684 257.778 31.7426 257.233 33.124C256.778 34.2799 255.879 34.9517 254.63 35.1061C253.31 35.2693 252.118 34.9893 251.294 33.8653C249.683 31.6704 248.085 29.4665 246.481 27.2669C246.345 27.0806 246.203 26.899 246.02 26.6586C245.871 26.8389 245.738 26.9826 245.624 27.1389C244.03 29.3173 242.447 31.5035 240.843 33.675C239.788 35.1046 238.013 35.5507 236.436 34.8168C234.512 33.9206 233.973 31.3843 235.363 29.5978C236.865 27.6678 238.405 25.7658 239.927 23.8512C240.391 23.268 240.853 22.6835 241.352 22.0535C241.071 21.6909 240.795 21.3264 240.511 20.9682C239.005 19.0703 237.503 17.1693 235.987 15.2792C235.261 14.3746 234.941 13.3722 235.162 12.2386C235.432 10.8535 236.198 9.84857 237.663 9.54211C239.197 9.22125 240.524 9.57754 241.475 10.8983C242.849 12.8048 244.236 14.7017 245.618 16.6022C245.767 16.8067 245.92 17.0086 246.111 17.2667C247.422 15.4699 248.695 13.7265 249.967 11.9831C250.214 11.6448 250.479 11.3177 250.706 10.9671C251.928 9.07826 254.359 9.1274 255.7 10.074C257.181 11.1195 257.459 13.4331 256.254 14.9703C254.543 17.1514 252.803 19.3107 251.077 21.4805C250.976 21.6074 250.888 21.7435 250.766 21.9136" fill="black"/>
<path fill-rule="evenodd" clip-rule="evenodd" d="M107.02 22.2342C107.088 20.1681 107.004 18.1027 107.625 16.0869C108.902 11.9405 111.821 9.70376 116.095 9.12218C119.173 8.70325 122.144 9.07577 124.775 10.8559C125.466 11.3233 126.115 11.9021 126.641 12.5427C127.788 13.9393 127.558 16.1315 126.241 17.2046C124.9 18.2964 122.736 18.1197 121.503 16.7718C120.875 16.0847 120.217 15.4784 119.285 15.2313C116.969 14.6178 115.015 15.6873 114.323 17.954C114.255 18.1755 114.162 18.4037 114.163 18.6287C114.169 21.1277 113.971 23.6523 114.27 26.1183C114.588 28.7325 117.012 29.9893 119.436 29.1466C120.326 28.8373 120.914 28.1893 121.461 27.4712C122.494 26.1149 124.07 25.6749 125.616 26.2745C127.449 26.9853 128.155 29.2664 127.082 31.0984C126.143 32.7008 124.793 33.8862 123.044 34.5575C119.812 35.7986 116.516 35.8444 113.286 34.6263C109.586 33.2307 107.771 30.3396 107.262 26.6072C107.065 25.1649 107.094 23.6927 107.02 22.2342" fill="black"/>
</svg>
