<?xml version="1.0" encoding="UTF-8"?>
<svg width="180px" height="120px" viewBox="0 0 180 120" version="1.1" xmlns="http://www.w3.org/2000/svg" xmlns:xlink="http://www.w3.org/1999/xlink">
    <title>Group</title>
    <defs>
        <polygon id="path-1" points="0.728 0.283 86.354 0.283 86.354 53.94 0.728 53.94"></polygon>
    </defs>
    <g id="Page-1" stroke="none" stroke-width="1" fill="none" fill-rule="evenodd">
        <g id="Group" transform="translate(0.000000, 0.745000)">
            <polyline id="Fill-1" fill="#2E2153" points="98.725 0 98.725 4.132 102.257 4.132 98.418 18.581 93.865 0 88.524 0 83.526 18.734 79.767 4.132 83.604 4.132 83.604 0 69.174 0 69.174 4.132 72.321 4.132 77.848 26.335 85.599 26.335 89.283 12.441 92.813 26.335 100.567 26.335 106.4 4.132 109.394 4.132 109.394 0 98.725 0"></polyline>
            <path d="M17.431,49.82 C17.431,52.217 19.458,54.046 21.953,54.046 C24.326,54.046 26.674,52.292 26.674,49.82 L26.674,40.404 L27.909,39.145 L24.104,39.145 L25.363,40.404 L25.363,49.82 C25.363,51.501 24.029,52.835 22.348,52.835 C20.644,52.835 19.136,51.526 19.136,49.82 L19.136,40.404 L20.396,39.145 L16.17,39.145 L17.431,40.404 L17.431,49.82 Z M34.458,52.464 L34.458,41.541 L42.316,53.75 L42.786,53.75 L42.786,40.404 L44.046,39.145 L40.24,39.145 L41.5,40.404 L41.5,49.673 L34.928,39.145 L31.913,39.145 L33.147,40.404 L33.147,52.464 L31.913,53.725 L35.718,53.725 L34.458,52.464 Z M48.643,39.145 L49.803,40.305 L49.803,52.564 L48.643,53.725 L52.571,53.725 L51.41,52.564 L51.41,40.305 L52.571,39.145 L48.643,39.145 Z M60.579,39.145 L56.451,39.145 L57.638,40.305 L61.741,53.725 L62.481,53.725 L66.707,40.305 L67.893,39.145 L64.384,39.145 L65.522,40.281 L62.432,50.364 L59.442,40.281 L60.579,39.145 Z M80.102,53.725 L80.102,51.057 L78.545,52.638 L74.12,52.638 L74.12,46.508 L77.407,46.508 L78.569,47.671 L78.569,44.261 L77.407,45.421 L74.12,45.421 L74.12,40.233 L78.545,40.233 L80.102,41.788 L80.102,39.145 L71.377,39.145 L72.515,40.305 L72.515,52.564 L71.377,53.725 L80.102,53.725 Z M87.269,52.564 L87.269,46.929 L89.466,46.929 L93.001,53.725 L95.422,53.725 L94.286,52.564 L91.023,46.582 C92.654,46.089 93.768,44.558 93.768,43.172 C93.768,40.703 91.468,39.145 89.047,39.145 L84.524,39.145 L85.661,40.305 L85.661,52.564 L84.524,53.725 L88.429,53.725 L87.269,52.564 Z M87.269,40.233 L89.047,40.233 C90.604,40.233 91.839,41.567 91.839,43.149 C91.839,44.655 90.579,45.84 89.047,45.84 L87.269,45.84 L87.269,40.233 Z M106.616,49.673 C106.616,48.238 105.95,47.35 105.259,46.881 L102.292,44.73 C101.229,43.964 100.687,42.975 100.687,42.233 C100.687,40.703 101.996,40.157 102.786,40.157 C103.207,40.157 103.504,40.331 103.726,40.331 L105.012,41.715 L106.369,39.689 L103.479,39.145 C103.28,39.096 103.159,39.07 102.786,39.07 C100.24,39.07 99.079,41.246 99.079,42.653 C99.079,43.767 99.647,45.026 100.956,45.989 L103.948,48.14 C104.763,48.708 104.985,49.549 104.985,50.265 C104.985,51.501 104.22,52.835 102.563,52.835 C102.168,52.835 101.823,52.761 101.552,52.638 L100.166,51.007 L98.906,53.279 L101.699,53.824 C101.699,53.824 102.168,53.924 102.563,53.924 C104.319,53.924 106.616,52.441 106.616,49.673 L106.616,49.673 Z M111.46,39.145 L112.622,40.305 L112.622,52.564 L111.46,53.725 L115.389,53.725 L114.228,52.564 L114.228,40.305 L115.389,39.145 L111.46,39.145 Z M125.299,52.564 L125.299,40.233 L128.066,40.233 L129.625,41.788 L129.625,39.145 L119.368,39.145 L119.368,41.788 L120.951,40.233 L123.691,40.233 L123.691,52.564 L122.555,53.725 L126.461,53.725 L125.299,52.564 Z M133.602,40.305 L137.284,46.954 L137.284,52.564 L136.124,53.725 L140.053,53.725 L138.892,52.564 L138.892,46.954 L142.646,40.331 L143.858,39.145 L140.25,39.145 L141.388,40.281 L138.323,45.742 L135.406,40.281 L136.545,39.145 L132.417,39.145 L133.602,40.305 Z M155.732,44.523 C155.199,44.523 154.359,44.767 153.52,45.259 C152.107,46.099 150.571,48.003 150.571,50.87 C150.571,52.304 151.247,53.902 153.152,53.902 C154.053,53.902 155.344,53.309 156.204,52.53 C157.556,51.3 158.354,49.191 158.354,47.369 C158.354,45.669 157.453,44.523 155.732,44.523 L155.732,44.523 Z M152.229,50.379 C152.229,47.348 153.766,45.71 154.399,45.442 C154.584,45.362 154.872,45.28 155.077,45.28 C156.102,45.28 156.695,46.057 156.695,47.635 C156.735,50.297 155.344,52.715 154.483,53 C154.319,53.063 154.053,53.145 153.848,53.145 C152.701,53.145 152.229,51.917 152.229,50.379 L152.229,50.379 Z M161.435,45.012 L160.879,45.545 L160.941,45.75 L162.642,45.75 C162.375,47.595 162.13,49.191 161.739,51.773 C161.188,55.603 160.716,56.954 160.327,57.282 C160.205,57.404 159.999,57.465 159.814,57.465 C159.569,57.465 159.181,57.282 158.912,57.158 C158.669,57.036 158.463,57.18 158.341,57.301 C158.177,57.486 157.991,57.774 157.991,58 C157.991,58.407 158.525,58.613 158.872,58.613 C159.261,58.613 160.245,58.285 161.126,57.2 C161.823,56.34 162.764,54.354 163.563,49.724 C163.706,48.863 163.872,48.003 164.219,45.75 L166.309,45.545 L166.758,45.012 L164.342,45.012 C164.955,41.224 165.468,40.077 166.349,40.077 C166.964,40.077 167.474,40.322 167.925,40.753 C168.069,40.896 168.294,40.896 168.498,40.733 C168.664,40.589 168.909,40.26 168.909,39.975 C168.929,39.565 168.376,39.113 167.68,39.113 C166.491,39.113 165.242,39.811 164.382,40.835 C163.583,41.796 163.051,43.354 162.764,45.012 L161.435,45.012 L161.435,45.012 Z" id="Fill-3" fill="#1B1A19"></path>
            <path d="M8.105,84.136 L12.589,69.952 L16.939,84.136 L17.937,84.136 L23.616,66.099 L25.211,64.538 L20.493,64.538 L22.022,66.066 L17.87,79.618 L13.851,66.066 L15.379,64.538 L9.832,64.538 L11.393,66.099 L11.791,67.395 L8.038,79.618 L4.019,66.066 L5.547,64.538 L0,64.538 L1.595,66.099 L7.108,84.136 L8.105,84.136 Z M27.586,82.608 L29.015,78.454 L35.491,78.454 L36.853,82.608 L35.326,84.136 L40.873,84.136 L39.311,82.541 L33.2,64.538 L32.204,64.538 L25.992,82.541 L24.398,84.136 L29.115,84.136 L27.586,82.608 Z M32.303,68.889 L34.994,76.993 L29.513,76.993 L32.303,68.889 Z M53.73,78.689 C53.73,76.762 52.833,75.566 51.903,74.935 L47.917,72.045 C46.49,71.015 45.758,69.687 45.758,68.69 C45.758,66.63 47.519,65.9 48.582,65.9 C49.147,65.9 49.545,66.133 49.844,66.133 L51.571,67.991 L53.398,65.269 L49.511,64.538 C49.246,64.473 49.081,64.439 48.582,64.439 C45.161,64.439 43.6,67.36 43.6,69.255 C43.6,70.75 44.363,72.443 46.124,73.739 L50.142,76.629 C51.239,77.392 51.537,78.522 51.537,79.484 C51.537,81.145 50.508,82.94 48.283,82.94 C47.75,82.94 47.286,82.84 46.92,82.673 L45.061,80.482 L43.367,83.536 L47.121,84.267 C47.121,84.267 47.75,84.4 48.283,84.4 C50.642,84.4 53.73,82.408 53.73,78.689 L53.73,78.689 Z M62.067,74.304 L70.304,74.304 L70.304,82.573 L68.744,84.136 L74.024,84.136 L72.462,82.573 L72.462,66.099 L74.024,64.538 L68.744,64.538 L70.304,66.099 L70.304,72.843 L62.067,72.843 L62.067,66.099 L63.627,64.538 L58.379,64.538 L59.908,66.099 L59.908,82.573 L58.379,84.136 L63.627,84.136 L62.067,82.573 L62.067,74.304 Z M93.382,82.441 L93.382,67.761 L103.804,84.127 L104.574,84.132 L104.576,66.233 L106.269,64.538 L101.155,64.538 L102.848,66.233 L102.848,78.689 L94.013,64.538 L89.959,64.538 L91.621,66.233 L91.621,82.441 L89.959,84.136 L95.075,84.136 L93.382,82.441 Z M121.36,75.233 L121.36,81.544 C120.896,82.01 119.967,82.94 118.141,82.94 C113.788,82.94 111.597,78.555 111.597,74.338 C111.597,70.085 114.354,65.733 118.141,65.733 C119.136,65.733 119.866,65.966 120.53,66.664 L122.69,68.789 L122.69,65.402 C121.527,64.804 120.365,64.272 118.141,64.272 C112.793,64.272 109.038,69.056 109.038,74.338 C109.038,79.519 112.793,84.4 118.141,84.4 C121.163,84.4 122.457,83.67 123.52,82.972 L123.52,75.233 L125.048,73.672 L119.8,73.672 L121.36,75.233 Z M135.65,82.573 L135.65,65.999 L139.37,65.999 L141.464,68.093 L141.464,64.538 L127.678,64.538 L127.678,68.093 L129.805,65.999 L133.491,65.999 L133.491,82.573 L131.963,84.136 L137.212,84.136 L135.65,82.573 Z M143.435,74.338 C143.435,79.317 146.259,84.567 151.274,84.567 C156.321,84.567 159.145,79.317 159.145,74.338 C159.145,69.355 156.321,64.107 151.274,64.107 C146.259,64.107 143.435,69.355 143.435,74.338 L143.435,74.338 Z M151.274,83.072 C147.355,83.072 145.992,78.388 145.992,74.338 C145.992,70.284 147.355,65.602 151.274,65.602 C155.227,65.602 156.588,70.284 156.588,74.338 C156.588,78.388 155.227,83.072 151.274,83.072 L151.274,83.072 Z M166.193,82.441 L166.193,67.761 L176.563,84.146 L177.388,84.146 L177.388,66.233 L179.081,64.538 L173.966,64.538 L175.66,66.233 L175.66,78.689 L166.825,64.538 L162.771,64.538 L164.434,66.233 L164.434,82.441 L162.771,84.136 L167.889,84.136 L166.193,82.441 L166.193,82.441 Z" id="Fill-4" fill="#1B1A19"></path>
            <g id="Group-8" transform="translate(46.000000, 64.255000)">
                <mask id="mask-2" fill="white">
                    <use xlink:href="#path-1"></use>
                </mask>
                <g id="Clip-6"></g>
                <polyline id="Fill-5" fill="#1B1A19" mask="url(#mask-2)" points="33.311 0.283 34.871 1.844 34.871 18.318 33.311 19.881 38.591 19.881 37.03 18.318 37.03 1.844 38.591 0.283 33.311 0.283"></polyline>
                <path d="M0.728,53.679 L5.762,53.679 C8.082,53.679 10.477,52.741 10.477,49.903 C10.477,48.176 9.045,46.448 7.218,46.151 C8.65,45.682 9.761,44.274 9.761,43.115 C9.761,40.153 7.565,39.116 5.243,39.116 L0.728,39.116 L1.862,40.277 L1.862,52.518 L0.728,53.679 Z M3.466,40.203 L5.243,40.203 C6.799,40.203 8.034,41.609 8.034,43.115 C8.034,44.598 6.773,45.806 5.243,45.806 L3.466,45.806 L3.466,40.203 Z M5.762,52.594 L3.466,52.594 L3.466,46.891 L5.762,46.891 C7.416,46.891 8.773,48.224 8.773,49.903 C8.773,51.482 7.317,52.594 5.762,52.594 L5.762,52.594 Z M13.376,46.398 C13.376,50.1 15.475,54 19.201,54 C22.953,54 25.051,50.1 25.051,46.398 C25.051,42.696 22.953,38.797 19.201,38.797 C15.475,38.797 13.376,42.696 13.376,46.398 L13.376,46.398 Z M19.201,52.889 C16.289,52.889 15.275,49.41 15.275,46.398 C15.275,43.387 16.289,39.908 19.201,39.908 C22.139,39.908 23.15,43.387 23.15,46.398 C23.15,49.41 22.139,52.889 19.201,52.889 L19.201,52.889 Z M33.195,52.518 L33.195,40.203 L35.96,40.203 L37.515,41.759 L37.515,39.116 L27.271,39.116 L27.271,41.759 L28.851,40.203 L31.591,40.203 L31.591,52.518 L30.456,53.679 L34.355,53.679 L33.195,52.518 Z M42.821,46.373 L48.942,46.373 L48.942,52.518 L47.783,53.679 L51.707,53.679 L50.546,52.518 L50.546,40.277 L51.707,39.116 L47.783,39.116 L48.942,40.277 L48.942,45.287 L42.821,45.287 L42.821,40.277 L43.98,39.116 L40.082,39.116 L41.217,40.277 L41.217,52.518 L40.082,53.679 L43.98,53.679 L42.821,52.518 L42.821,46.373 Z M63.966,53.679 L63.966,51.014 L62.41,52.594 L57.993,52.594 L57.993,46.473 L61.275,46.473 L62.436,47.632 L62.436,44.226 L61.275,45.386 L57.993,45.386 L57.993,40.203 L62.41,40.203 L63.966,41.759 L63.966,39.116 L55.253,39.116 L56.388,40.277 L56.388,52.518 L55.253,53.679 L63.966,53.679 Z M67.571,53.679 L75.37,53.679 L75.37,50.914 L73.792,52.494 L70.311,52.494 L70.311,40.277 L71.471,39.116 L67.571,39.116 L68.708,40.277 L68.708,52.518 L67.571,53.679 Z M78.554,53.679 L86.354,53.679 L86.354,50.914 L84.774,52.494 L81.294,52.494 L81.294,40.277 L82.455,39.116 L78.554,39.116 L79.69,40.277 L79.69,52.518 L78.554,53.679 L78.554,53.679 Z" id="Fill-7" fill="#1B1A19" mask="url(#mask-2)"></path>
            </g>
            <polygon id="Fill-9" fill="#1B1A19" points="0.03 93.82 179.051 93.82 179.051 93.32 0.03 93.32"></polygon>
        </g>
    </g>
</svg>