<?xml version="1.0" encoding="UTF-8"?>
<svg width="133px" height="442px" viewBox="0 0 133 442" version="1.1" xmlns="http://www.w3.org/2000/svg" xmlns:xlink="http://www.w3.org/1999/xlink">
    <title>4236A973-C2E2-4BBD-A224-8AA22F825516</title>
    <defs>
        <polygon id="path-1" points="0.38292 0.352819976 19.5948 0.352819976 19.5948 48.34866 0.38292 48.34866"></polygon>
        <polygon id="path-3" points="0 0.00024 51.4830841 0.00024 51.4830841 71.1352159 0 71.1352159"></polygon>
        <polygon id="path-5" points="0 0.28164 49.0070449 0.28164 49.0070449 36.9352159 0 36.9352159"></polygon>
    </defs>
    <g id="Final" stroke="none" stroke-width="1" fill="none" fill-rule="evenodd">
        <g id="Desktop-1440-/-Home-/-Final" transform="translate(-897.000000, -3380.000000)">
            <g id="Group-72" transform="translate(897.000000, 3380.000000)">
                <path d="M117.09198,420.111 C115.07538,414.06 106.29198,416.511 104.49198,420.111 C102.69198,423.711 108.69198,441.711 112.89198,441.711 C117.09198,441.711 119.49198,427.311 117.09198,420.111" id="Fill-1" fill="#383838"></path>
                <path d="M55.29198,414.111 C55.29198,414.111 23.49198,428.511 37.29198,428.511 C51.09198,428.511 63.69198,431.511 63.09198,424.311 C62.49198,417.111 64.29198,409.911 55.29198,414.111" id="Fill-3" fill="#383838"></path>
                <path d="M75.69198,85.911 C72.69198,106.911 69.09198,109.311 69.09198,109.311 C69.09198,109.311 78.87618,129.711 82.13718,129.711 C86.07618,129.711 97.89198,109.311 97.89198,109.311 C97.89198,109.311 94.89198,88.311 94.89198,85.911 C94.89198,83.511 75.69198,85.911 75.69198,85.911" id="Fill-5" fill="#FFD99A"></path>
                <path d="M131.73516,52.55592 C131.33256,44.84352 132.51696,11.33172 127.76496,4.67892 C127.65756,3.21912 59.56776,-4.48608 57.86856,4.12092 C55.94856,13.84752 43.67136,21.05412 43.27476,21.16812 C36.82296,23.05032 37.88496,79.74492 44.76396,84.84552 C52.66056,90.70332 97.54236,89.34372 110.32236,85.34472 C121.23756,81.93432 132.22176,61.96872 131.73516,52.55592" id="Fill-7" fill="#FF9137"></path>
                <path d="M131.05548,52.66842 C130.65348,44.95602 132.51408,11.44362 127.76148,4.79082 C127.65468,3.33162 122.32308,19.45602 112.85808,25.43982 C105.76788,29.92302 43.66788,21.16662 43.27188,21.28062 C36.82008,23.16282 36.68208,75.65742 43.56108,80.75802 C51.45708,86.61582 97.53888,89.45622 110.31888,85.45662 C121.23468,82.04682 131.54268,62.08122 131.05548,52.66842" id="Fill-9" fill="#FFA963"></path>
                <path d="M110.31912,85.45104 C121.23432,82.04004 132.21852,62.07504 131.73192,52.66224 C131.32992,44.94924 132.51372,11.43804 127.76112,4.78524 C127.65492,3.32544 119.95632,15.60984 112.52052,25.43424" id="Fill-11" fill="#FF9137"></path>
                <g id="Group-15" transform="translate(112.200000, 3.711000)">
                    <mask id="mask-2" fill="white">
                        <use xlink:href="#path-1"></use>
                    </mask>
                    <g id="Clip-14"></g>
                    <path d="M19.59492,48.34866 C19.19232,40.63626 20.37672,7.12446 15.62472,0.47166 C15.51732,-0.98814 7.81992,11.29566 0.38292,21.12066 C0.38292,21.12066 6.40992,20.79726 12.38892,30.53466 C18.69192,40.80006 19.59492,48.34866 19.59492,48.34866" id="Fill-13" fill="#D37751" mask="url(#mask-2)"></path>
                </g>
                <path d="M42.10308,50.85672 C48.37308,50.99172 43.09308,59.23872 40.39428,64.40892 C37.69488,69.57912 32.71008,74.23872 26.83668,71.172716 C20.96328,68.10672 24.37248,63.52992 27.10848,58.37892 C31.91628,49.32372 32.76768,50.65512 42.10308,50.85672" id="Fill-16" fill="#FFD99A"></path>
                <path d="M68.68122,111.58794 C68.68122,111.58794 65.84322,116.87394 67.91922,122.47974 C69.99642,128.08614 76.50342,136.84194 82.45662,134.30694 C88.40982,131.77314 97.09662,118.17894 97.1146406,114.41634 C97.13142,110.65254 86.86842,112.31814 85.63122,113.21334 C84.39462,114.10854 81.40602,115.58754 79.75662,119.17734 C79.75662,119.17734 74.35722,107.14674 68.68122,111.58794" id="Fill-18" fill="#02B67C"></path>
                <g id="Group-22" transform="translate(0.000000, 64.311000)">
                    <mask id="mask-4" fill="white">
                        <use xlink:href="#path-3"></use>
                    </mask>
                    <g id="Clip-21"></g>
                    <path d="M42.38844,70.86504 C29.96424,72.81444 2.59284,63.76464 0.75744,58.16964 C-1.07436,52.57764 0.61524,43.69284 3.69204,34.48164 L3.69204,34.47864 C8.72064,19.41984 20.57124,3.43464 20.57124,3.43464 L24.86424,0.00024 C33.11964,0.34704 36.30744,7.15464 36.30744,7.15464 L33.65544,11.21184 C33.65544,11.21184 34.34604,11.32164 33.25704,17.88804 C32.16564,24.45384 29.46684,38.33484 29.46684,38.33484 C40.68084,36.71724 46.16244,37.43064 48.35184,37.95564 C49.20564,38.15904 49.55904,38.33484 49.55904,38.33484 C49.55904,38.33484 49.58844,38.67444 49.63344,39.29484 C50.10924,45.93324 56.49204,68.65224 42.38844,70.86504" id="Fill-20" fill="#02B67C" mask="url(#mask-4)"></path>
                </g>
                <path d="M29.46738,102.64656 C29.46738,102.64656 25.88478,114.39696 21.67998,119.40816 C17.47458,124.41936 31.63638,121.05636 40.67598,101.65656 C40.67598,101.65656 31.95918,102.30096 29.46738,102.64656" id="Fill-23" fill="#35A17D"></path>
                <g id="Group-27" transform="translate(0.000000, 98.511000)">
                    <mask id="mask-6" fill="white">
                        <use xlink:href="#path-5"></use>
                    </mask>
                    <g id="Clip-26"></g>
                    <path d="M42.38844,36.66504 C29.96424,38.61444 2.59284,29.56464 0.75744,23.96964 C-1.07436,18.37764 0.61524,9.49284 3.69204,0.28164 C-0.22296,25.10964 34.42944,36.42864 39.42924,17.13924 C44.43024,-2.15016 56.49204,34.45224 42.38844,36.66504" id="Fill-25" fill="#35A17D" mask="url(#mask-6)"></path>
                </g>
                <path d="M121.09512,173.87664 C117.97992,187.70304 117.44772,236.12124 117.44772,236.12124 C117.44772,236.12124 106.70412,248.08644 44.61192,230.57484 C44.61192,230.57484 45.42252,219.23124 46.41672,205.94244 C46.81512,200.62704 47.24052,195.00024 47.65932,189.66264 C48.31152,181.31724 46.53852,173.68404 46.98672,169.05924 C48.44292,154.08264 36.63072,119.86764 48.88392,101.43804 C48.88392,101.43804 49.71492,100.40004 51.99972,100.74684 C54.28392,101.09064 71.24292,100.25964 71.24292,100.25964 L68.88792,113.21424 C68.88792,113.21424 68.05752,123.32484 76.43412,125.78124 C84.80892,128.24004 93.67152,118.18044 94.22412,116.56704 C94.77852,114.95484 99.06912,103.05024 99.06912,103.05024 C99.06912,103.05024 102.39252,103.18524 107.10012,104.71944 C110.60292,105.86304 115.54272,105.28644 121.15632,107.88684 C123.08712,108.78084 124.59972,109.76484 125.32632,110.84544 C127.87392,114.63384 121.41672,172.45764 121.09512,173.87664" id="Fill-28" fill="#02B67C"></path>
                <path d="M123.49512,159.47664 C120.37992,173.30304 117.44772,236.12124 117.44772,236.12124 C117.44772,236.12124 106.70412,248.08644 44.61192,230.57484 C44.61192,230.57484 46.19952,208.33944 47.65932,189.66264 C47.65932,189.66264 73.37952,180.26124 85.97952,147.26124 C101.84592,105.70584 108.01692,135.66984 111.78012,122.80344 C115.54512,109.93464 121.15632,107.88684 121.15632,107.88684 C123.08712,108.78084 124.59972,109.76484 125.32632,110.84544 C128.16552,115.06764 126.61092,145.65324 123.49512,159.47664" id="Fill-30" fill="#35A17D"></path>
                <path d="M95.57928,183.861 C81.20028,182.9022 104.57928,203.061 51.77928,194.061 C50.78568,207.3492 49.22088,209.4342 61.37928,210.861 C103.16688,215.7642 106.61388,198.7956 112.37928,186.261 C126.17928,156.261 126.21708,139.878 126.31668,137.4666 C122.12088,130.0134 104.57928,184.461 95.57928,183.861" id="Fill-32" fill="#02895D"></path>
                <path d="M119.27868,417.6102 C119.27868,417.6102 114.04128,420.8538 107.56848,420.7062 C105.24828,420.6534 102.76788,420.1638 100.31508,418.9332 C100.31508,418.9332 94.80348,354.9744 91.12968,337.473 C87.45468,319.971 78.88188,252.7302 78.88188,252.7302 C78.88188,252.7302 72.45288,319.5114 72.60468,332.406 C72.75828,345.303 67.55388,418.0698 67.55388,418.0698 C67.55388,418.0698 53.00988,419.913 48.11088,415.077 C48.11088,415.077 47.88948,406.1016 47.51568,394.5978 C46.95588,377.4324 46.05828,354.6354 45.04968,347.6058 C43.36608,335.8608 43.21248,292.3386 43.21248,292.3386 C43.85028,239.2842 43.86528,239.1408 45.95268,211.9884 C47.10468,196.9848 44.88228,206.7288 46.89168,205.911 C52.35348,203.6868 62.77128,209.7 82.29168,211.125 C94.94388,212.0484 120.46668,208.2612 120.29148,208.4838 C120.29148,208.4838 117.21888,291.4176 118.64148,314.907 C120.06348,338.3946 123.08808,397.806 119.27868,417.6102" id="Fill-34" fill="#D8CF97"></path>
                <path d="M119.27868,417.6102 C119.27868,417.6102 114.04128,420.8538 107.56848,420.7062 C116.89068,404.3442 106.05468,322.389 107.43348,295.1028 C108.81048,267.8148 99.62508,235.6908 85.10808,234.6534 C70.59048,233.6172 45.95268,211.9884 45.95268,211.9884 C47.10468,196.9848 44.72208,203.511 46.89168,203.511 C50.17608,203.511 59.65068,208.5414 78.30288,209.868 C94.42788,211.0146 120.29148,208.4838 120.29148,208.4838 C120.29148,208.4838 117.21888,291.4176 118.64148,314.907 C120.06348,338.3946 123.08808,397.806 119.27868,417.6102" id="Fill-36" fill="#CBBF74"></path>
                <path d="M96.85488,100.59228 C96.85488,100.59228 96.68748,102.35808 92.86008,105.58368 C89.03268,108.80928 80.58768,115.18368 79.75668,119.17788 C79.75668,119.17788 83.42568,112.87968 88.30548,114.87708 C93.18588,116.87388 97.82388,126.16668 97.82388,126.16668 C97.82388,126.16668 101.14608,111.42108 100.45428,103.74108 C100.45428,103.74108 100.38528,102.12828 98.86248,100.89948 C97.33968,99.67068 96.85488,100.59228 96.85488,100.59228" id="Fill-38" fill="#A3D3AA"></path>
                <path d="M74.9109,97.98072 C74.9109,97.98072 75.9495,110.72952 79.7565,119.17752 C79.7565,119.17752 71.5197,107.88852 61.3437,122.47992 C61.3437,122.47992 68.1273,106.73652 68.1273,101.36052 C68.1273,101.36052 67.7121,99.97752 69.5121,99.59352 C71.3115,99.21012 74.6775,95.75772 74.9109,97.98072" id="Fill-40" fill="#A3D3AA"></path>
                <path d="M32.37714,102.336 C32.37714,102.336 30.63774,109.8276 23.17314,117.3252 C23.17314,117.3252 26.81934,111.9204 29.46714,102.6468 L32.37714,102.336 Z" id="Fill-42" fill="#02895D"></path>
                <path d="M20.57106,67.74576 C20.57106,67.74576 28.04946,68.43876 33.65586,75.52296 L36.30786,70.26576 C36.30786,70.26576 34.38066,66.13296 29.44866,67.05516 C24.51726,67.97676 20.57106,67.74576 20.57106,67.74576" id="Fill-44" fill="#35A17D"></path>
                <path d="M54.75174,185.42778 C54.62274,185.22018 54.46854,185.06358 54.30294,184.94118 C52.81974,180.57558 51.25194,176.23998 49.57614,171.94338 C47.81814,167.43438 46.27494,162.16398 43.59954,158.10018 C40.83114,153.89418 35.53254,153.55698 30.95634,152.88858 C25.59594,152.10498 20.18934,151.68078 14.77074,151.67597 C11.05014,151.67298 6.84174,152.34318 7.49094,157.10778 C7.82634,159.56538 8.90394,161.99898 9.66174,164.34978 C10.57134,167.17578 11.48214,170.00238 12.39234,172.82838 C14.11674,178.18338 15.84174,183.53838 17.56674,188.89338 C18.21114,190.89318 18.68334,193.19718 19.83414,194.99118 C20.96394,196.75278 22.81074,197.55618 24.69294,198.26478 C35.95794,202.50318 47.83434,205.18158 59.74734,206.75838 C60.58314,206.86818 61.50174,205.90098 61.41714,205.08858 C60.68874,198.06918 58.47834,191.42838 54.75174,185.42778" id="Fill-46" fill="#063F58"></path>
                <path d="M40.29198,178.911 C42.97698,174.8838 45.67518,161.5638 42.99978,157.5 C40.23078,153.2946 34.93218,152.9568 30.35598,152.2884 C24.99618,151.5048 19.58898,151.0806 14.17098,151.075794 C10.45038,151.0734 6.24198,151.7436 6.89118,156.5076 C7.22658,158.9652 8.30418,161.3988 9.06138,163.7496 C9.97158,166.5756 10.88178,169.4022 11.79258,172.2282 C13.51698,177.5832 15.24198,182.9382 16.96698,188.2938 C17.61078,190.2936 18.08298,192.5976 19.23378,194.3916 C20.36418,196.1526 22.21038,196.956 24.09318,197.6646 C35.35758,201.903 31.89198,191.511 40.29198,178.911" id="Fill-48" fill="#0152AD"></path>
                <path d="M31.60254,188.47878 C29.45394,181.23438 40.67514,184.13298 47.48574,185.24838 C54.29574,186.36498 61.37034,190.29858 60.07374,198.21078 C58.77714,206.12238 52.37454,203.96418 45.57234,202.79898 C33.61494,200.75058 34.80114,199.26438 31.60254,188.47878" id="Fill-50" fill="#FFD99A"></path>
                <path d="M94.62246,190.13754 C88.26306,192.97614 58.97406,204.77994 58.97406,204.77994 L58.97046,204.78114 L56.22186,204.95514 C56.41626,204.91194 56.43546,193.08834 55.34346,188.19114 C54.77946,185.66094 90.01566,174.92214 85.84086,175.44954 C86.82906,166.98954 100.37946,107.06094 120.17946,107.06094 C132.38346,107.06094 128.36706,129.98994 121.93086,148.38354 C119.12466,156.40254 115.28166,162.72534 109.41006,171.83814 C101.81826,183.62514 98.20806,188.53614 94.62246,190.13754" id="Fill-52" fill="#02B67C"></path>
                <path d="M94.7004,190.86996 C88.341,193.70856 59.052,205.51296 59.052,205.51296 L59.0484,205.51356 L56.2998,205.68816 C56.4942,205.64496 81.6714,194.75856 80.5794,189.86076 C80.0148,187.33116 94.9548,185.73276 90.7794,186.26076 C91.767,177.80136 117.1794,153.86076 122.5794,134.66076 C125.8836,122.91276 128.445,130.72296 122.0088,149.11656 C119.2032,157.13556 115.3596,163.45836 109.488,172.57056 C101.8968,184.35756 98.286,189.26916 94.7004,190.86996" id="Fill-54" fill="#35A17D"></path>
                <path d="M85.84098,175.4493 C85.84098,175.4493 89.31258,171.8079 92.98338,178.9317 C92.98338,178.9317 95.38938,180.0615 93.77778,175.2207 C92.16558,170.3799 86.43078,171.6039 86.43078,171.6039 L85.84098,175.4493 Z" id="Fill-56" fill="#02895D"></path>
                <path d="M92.4996,0.45552 C75.582,-0.50868 58.7832,-0.21048 57.9498,4.01052 C56.031,13.73652 44.9526,19.14312 44.5572,19.25712 L75.6918,22.91112 L92.4996,0.45552 Z" id="Fill-58" fill="#FFA963"></path>
                <path d="M127.50348,4.00572 C110.58528,3.04152 96.02448,-0.25308 92.95368,2.76012 C87.09168,8.51112 79.52688,19.99632 79.5603685,20.40672 C80.19708,28.21812 110.69508,24.66132 110.69508,24.66132 L127.50348,4.00572 Z" id="Fill-60" fill="#FFA963"></path>
                <path d="M58.22988,50.7372 C57.96648,52.7238 57.04848,54.1212 56.17908,53.8584 C55.31028,53.5962 54.81888,51.7734 55.08228,49.7862 C55.34568,47.7996 56.26428,46.4016 57.13308,46.6644 C58.00248,46.9272 58.49328,48.75 58.22988,50.7372" id="Fill-62" fill="#1C2D41"></path>
                <path d="M79.79004,52.18266 C79.52724,54.16926 78.60864,55.56666 77.73924,55.30386 C76.87044,55.04166 76.37904,53.21826 76.64304,51.23166 C76.90584,49.24506 77.82444,47.84706 78.69324,48.10986 C79.56264,48.37206 80.05344,50.19546 79.79004,52.18266" id="Fill-64" fill="#1C2D41"></path>
                <path d="M76.2879,33.5868 C76.1991,33.144 76.6971,32.862 77.1021,32.7912 C78.3963,32.5638 81.6441,32.3322 82.6329,35.4516 C83.4477,38.0208 82.3413,37.3488 82.1841,36.942 C81.9411,36.315 81.3003,34.9722 80.5935,34.428 C78.9603,33.1734 76.4919,34.6038 76.2879,33.5868" id="Fill-66" fill="#1C2D41"></path>
                <path d="M52.42086,32.53914 C52.11126,32.06334 52.42986,31.36854 52.77006,30.99414 C53.85546,29.80194 56.75346,27.21954 59.26806,30.31074 C61.33866,32.85654 59.96766,32.82354 59.61366,32.44014 C59.06706,31.85034 57.78426,30.67134 56.85006,30.51114 C54.69126,30.14214 53.13126,33.63054 52.42086,32.53914" id="Fill-68" fill="#1C2D41"></path>
                <path d="M57.77928,69.261 C55.67508,69.261 57.17928,73.461 67.97928,73.461 C73.88928,73.461 77.83428,68.661 72.77928,68.661 C66.77928,68.661 69.17928,69.261 57.77928,69.261" id="Fill-70" fill="#1C2D41"></path>
            </g>
        </g>
    </g>
</svg>