<?xml version="1.0" encoding="UTF-8"?>
<svg width="199px" height="345px" viewBox="0 0 199 345" version="1.1" xmlns="http://www.w3.org/2000/svg" xmlns:xlink="http://www.w3.org/1999/xlink">
    <title>Group</title>
    <defs>
        <polygon id="path-1" points="0.0639101315 0.352202429 11.4583633 0.352202429 11.4583633 17.3281618 0.0639101315 17.3281618"></polygon>
        <polygon id="path-3" points="0.176223375 0.236848502 13.0791353 0.236848502 13.0791353 32.4724916 0.176223375 32.4724916"></polygon>
        <polygon id="path-5" points="0 0.376241979 17.1461916 0.376241979 17.1461916 10.2720324 0 10.2720324"></polygon>
    </defs>
    <g id="Symbols" stroke="none" stroke-width="1" fill="none" fill-rule="evenodd">
        <g id="Desktop/1440/PackageX/Home/Artwork/Carboard-Box-Dude-Carrying-Box-C1" transform="translate(-79.000000, -5.000000)">
            <g id="Group" transform="translate(79.000000, 5.000000)">
                <g id="Elements" transform="translate(99.500000, 172.500000) scale(1, -1) translate(-99.500000, -172.500000) ">
                    <g id="Middle" transform="translate(0.000000, 67.000000)">
                        <circle id="Oval-Copy-17" fill="#1C2D41" fill-rule="nonzero" cx="69.5" cy="45.5" r="3.5"></circle>
                        <circle id="Oval-Copy-17-Copy" fill="#1C2D41" fill-rule="nonzero" cx="35.5" cy="30.5384615" r="1.5"></circle>
                        <rect id="Rectangle-Copy-30-Copy-3" fill="#02B67C" fill-rule="nonzero" x="13" y="0" width="27" height="8" rx="4"></rect>
                        <rect id="Rectangle-Copy-31" fill="#FF1E59" fill-rule="nonzero" x="46" y="26" width="51" height="10" rx="5"></rect>
                        <rect id="Rectangle-Copy-33-Copy-3" fill="#804DDF" fill-rule="nonzero" x="35" y="13" width="22" height="9" rx="4.5"></rect>
                        <rect id="Rectangle-Copy-33-Copy-4" fill="#027AFF" x="71" y="4" width="22" height="9" rx="4.5"></rect>
                        <rect id="Rectangle-Copy-34-Copy" fill="#FFB02F" fill-rule="nonzero" x="0" y="13" width="27" height="7" rx="3.5"></rect>
                    </g>
                    <g id="Top" transform="translate(69.000000, 327.000000)">
                        <circle id="Oval-Copy-17-Copy-5" fill="#1C2D41" fill-rule="nonzero" cx="44.5" cy="3.5" r="3.5"></circle>
                        <circle id="Oval-Copy-17-Copy-2" fill="#1C2D41" fill-rule="nonzero" cx="5.5" cy="6.5" r="1.5"></circle>
                        <rect id="Rectangle-Copy-33-Copy-7" fill="#804DDF" fill-rule="nonzero" x="0" y="11" width="16" height="7" rx="3.5"></rect>
                        <rect id="Rectangle-Copy-33-Copy-8" fill="#027AFF" x="13" y="1" width="22" height="9" rx="4.5"></rect>
                        <rect id="Rectangle-Copy-31-Copy" fill="#FF1E59" fill-rule="nonzero" x="25" y="13.8823529" width="21" height="4.11764706" rx="2.05882353"></rect>
                    </g>
                    <g id="Bottom" transform="translate(163.500000, 12.500000) scale(1, -1) translate(-163.500000, -12.500000) translate(128.000000, 0.000000)">
                        <circle id="Oval-Copy-17-Copy-6" fill="#1C2D41" fill-rule="nonzero" transform="translate(63.769231, 21.448276) scale(-1, -1) translate(-63.769231, -21.448276) " cx="63.7692308" cy="21.4482759" r="3.17307692"></circle>
                        <circle id="Oval-Copy-17-Copy-3" fill="#1C2D41" fill-rule="nonzero" transform="translate(3.269231, 12.269231) scale(-1, 1) translate(-3.269231, -12.269231) " cx="3.269231" cy="12.269231" r="3.269231"></circle>
                        <rect id="Rectangle-Copy-33-Copy-9" fill="#804DDF" fill-rule="nonzero" transform="translate(20.615385, 3.679045) scale(-1, -1) translate(-20.615385, -3.679045) " x="13" y="0.50596817" width="15.2307692" height="6.34615385" rx="3.17307692"></rect>
                        <rect id="Rectangle-Copy-33-Copy-10" fill="#027AFF" transform="translate(35.788462, 13.832891) scale(-1, -1) translate(-35.788462, -13.832891) " x="25" y="9.39058355" width="21.5769231" height="8.88461538" rx="4.44230769"></rect>
                        <rect id="Rectangle-Copy-31-Copy-2" fill="#FF1E59" fill-rule="nonzero" transform="translate(60.153846, 4.903846) scale(-1, -1) translate(-60.153846, -4.903846) " x="50" y="3" width="20.3076923" height="3.80769231" rx="1.90384615"></rect>
                    </g>
                </g>
                <g id="Group-136" transform="translate(88.000000, 18.000000)">
                    <g id="Group-3" transform="translate(75.760335, 279.340042)">
                        <mask id="mask-2" fill="white">
                            <use xlink:href="#path-1"></use>
                        </mask>
                        <g id="Clip-2"></g>
                        <path d="M11.2640708,2.82094414 C9.90925035,-1.24311427 4.0104217,0.403061102 2.80148018,2.82094414 C1.59253866,5.23882718 -1.63130539,17.3282424 1.18955816,17.3282424 C4.0104217,17.3282424 12.8759928,7.65671021 11.2640708,2.82094414" id="Fill-1" fill="#1C2D41" mask="url(#mask-2)"></path>
                    </g>
                    <path d="M41.4876088,255.161292 C41.4876088,255.161292 20.1296419,264.832824 29.3981936,264.832824 C38.6667452,264.832824 47.1293359,266.847727 46.7263553,262.011961 C46.3233748,257.176195 47.5323164,252.340429 41.4876088,255.161292" id="Fill-4" fill="#1C2D41"></path>
                    <path d="M59.218751,57.7008444 C57.2038485,71.8051621 54.7859655,73.4170841 54.7859655,73.4170841 C54.7859655,73.4170841 61.3573686,87.1184213 63.5475676,87.1184213 C66.1931347,87.1184213 74.1290298,73.4170841 74.1290298,73.4170841 C74.1290298,73.4170841 72.1141272,59.3127664 72.1141272,57.7008444 C72.1141272,56.0889223 59.218751,57.7008444 59.218751,57.7008444" id="Fill-6" fill="#FFD99A"></path>
                    <path d="M96.8590646,35.2984327 C96.5890677,30.1185212 97.3845512,7.61044805 94.1925426,3.14260318 C94.1208121,2.16215161 48.3889723,-3.01332703 47.2477315,2.76783131 C45.9585969,9.30054829 37.7124068,14.1407472 37.4464397,14.2173134 C33.1131903,15.4814633 33.8264658,53.5594943 38.4466373,56.9852316 C43.7498607,60.9195303 73.8940115,60.0063764 82.4778993,57.3205114 C89.8089207,55.0295672 97.1862848,41.6203908 96.8590646,35.2984327" id="Fill-8" fill="#FF9137"></path>
                    <path d="M96.402931,35.3738303 C96.132934,30.1939189 97.3821736,7.6858457 94.190165,3.21800083 C94.1188375,2.23754926 90.5375497,13.0672474 84.1809352,17.0865749 C79.4185116,20.0976453 37.7104322,14.2161448 37.4440621,14.2927111 C33.1112157,15.5568609 33.0181272,50.8140284 37.6382987,54.2397657 C42.9419251,58.1740644 73.8916339,60.0817741 82.4755217,57.395909 C89.8065431,55.1053678 96.7297482,41.6957885 96.402931,35.3738303" id="Fill-10" fill="#FFA963"></path>
                    <path d="M82.4757232,57.3917583 C89.8063416,55.1012171 97.1841087,41.6920408 96.8568885,35.3696796 C96.5868916,30.1897682 97.3823751,7.68209798 94.1903665,3.21385013 C94.118636,2.23380154 88.9483961,10.4840214 83.9538557,17.0824242" id="Fill-12" fill="#FF9137"></path>
                    <g id="Group-16" transform="translate(83.819945, 2.492434)">
                        <mask id="mask-4" fill="white">
                            <use xlink:href="#path-3"></use>
                        </mask>
                        <g id="Clip-15"></g>
                        <path d="M13.0792562,32.4724916 C12.8092593,27.2925801 13.6047428,4.78490993 10.4127342,0.316662082 C10.3410037,-0.66378949 5.17076377,7.58683339 0.176223375,14.1852362 C0.176223375,14.1852362 4.22416256,13.9680297 8.2398633,20.5080003 C12.4731735,27.4025938 13.0792562,32.4724916 13.0792562,32.4724916" id="Fill-14" fill="#D37751" mask="url(#mask-4)"></path>
                    </g>
                    <g id="Group-19" transform="translate(0.000000, 118.953801)">
                        <mask id="mask-6" fill="white">
                            <use xlink:href="#path-5"></use>
                        </mask>
                        <g id="Clip-18"></g>
                        <path d="M16.8249197,3.5722207 C18.6717794,-0.213781158 12.1237491,0.404390938 8.2067786,0.426554866 C4.28980808,0.449121774 -0.0253071758,1.99374605 -3.08932633e-05,6.4434568 C0.025468368,10.8935705 3.80663446,10.264115 7.72360498,10.2141454 C14.6089299,10.1262956 14.0757867,9.20830605 16.8249197,3.5722207" id="Fill-17" fill="#FFD99A" mask="url(#mask-6)"></path>
                    </g>
                    <path d="M33.1379736,120.614604 C28.8671862,122.521105 13.2250948,129.240402 13.2250948,129.240402 L13.2230799,129.240805 L11.3770262,129.358072 C11.5075919,129.329058 11.5204873,121.387521 10.7870628,118.098394 C10.4078581,116.399428 30.0442922,110.395422 27.2399509,110.749641 C27.9036598,105.067616 30.89579,79.792276 42.2433181,68.4447479 C48.0393867,62.6486793 50.1606761,83.844245 45.8379042,96.1984184 C43.9531644,101.584253 41.3716713,105.830861 37.428104,111.950926 C32.3295947,119.867478 35.5465881,119.539452 33.1379736,120.614604" id="Fill-20" fill="#02B67C"></path>
                    <path d="M36.0113455,120.703744 C31.7401551,122.610244 13.2776032,129.329541 13.2776032,129.329541 L13.2755883,129.330347 L11.4291316,129.447212 C11.5596973,129.418197 24.4397602,123.31546 23.7063357,120.02593 C23.3271311,118.326965 33.3613457,117.253424 30.5570043,117.608047 C31.2207132,111.926425 42.6464195,99.4739245 46.2732441,86.5785483 C48.4924577,78.68819 50.2127815,83.9333843 45.8900096,96.2875577 C44.0052698,101.673392 38.419557,119.628592 36.0113455,120.703744" id="Fill-22" fill="#35A17D"></path>
                    <path d="M27.2400315,110.346661 C27.2400315,110.346661 29.5720797,107.900972 32.0375144,112.685157 C32.0375144,112.685157 33.6534662,113.444372 32.5710606,110.193125 C31.488252,106.941879 27.6365643,107.763959 27.6365643,107.763959 L27.2400315,110.346661 Z" id="Fill-24" fill="#02895D"></path>
                    <path d="M54.510085,74.9461936 C54.510085,74.9461936 52.6039872,78.4964519 53.9987028,82.2619017 C55.3934183,86.0273516 59.7637419,91.9076431 63.7621145,90.2054535 C67.760487,88.5032638 73.5952418,79.3733375 73.6069421,76.8458437 C73.6182117,74.31835 66.7252301,75.4366209 65.8942843,76.0378678 C65.0637415,76.6395177 63.0564956,77.6324617 61.9487022,80.043897 C61.9487022,80.043897 58.3222806,71.9633319 54.510085,74.9461936" id="Fill-26" fill="#02B67C"></path>
                    <path d="M89.7132128,116.781575 C87.620938,126.067454 87.2634943,158.587175 87.2634943,158.587175 C87.2634943,158.587175 80.0477253,166.623413 38.3444817,154.862023 C38.3444817,154.862023 38.8889084,147.242871 39.5566471,138.318062 C39.8242261,134.748057 40.1099393,130.968906 40.3912197,127.383992 C40.8292595,121.778936 39.6384521,116.651815 39.9394786,113.546044 C40.9175122,103.487248 32.984035,80.5076873 41.2137029,68.1289321 C41.2137029,68.1289321 41.7718309,67.4321788 43.3063807,67.6651015 C44.8405275,67.8960094 56.2303685,67.3378814 56.2303685,67.3378814 L54.649073,76.0382305 C54.649073,76.0382305 54.090945,82.829258 59.7173588,84.4790602 C65.3421607,86.1304743 71.2941828,79.3737002 71.6653278,78.2904886 C72.0380848,77.207277 74.9197984,69.2121437 74.9197984,69.2121437 C74.9197984,69.2121437 77.1519074,69.3024113 80.3132895,70.3332355 C82.6658897,71.1013163 85.9840312,70.7140521 89.7539138,72.4601666 C91.0511081,73.0606075 92.0666189,73.7218986 92.5550313,74.4476664 C94.2656836,76.9916824 89.9292103,115.828526 89.7132128,116.781575" id="Fill-28" fill="#02B67C"></path>
                    <path d="M91.3251348,107.110042 C89.23286,116.395922 87.2634943,158.587175 87.2634943,158.587175 C87.2634943,158.587175 80.0477253,166.623413 38.3444817,154.862023 C38.3444817,154.862023 39.4103652,139.927566 40.3912197,127.383992 C40.3912197,127.383992 50.8147135,127.114398 59.2773041,104.95047 C69.9337206,77.040443 80.9294467,91.1205819 83.4569404,82.4790679 C85.9856431,73.835942 89.7539138,72.4601666 89.7539138,72.4601666 C91.0511081,73.0606075 92.0666189,73.7218986 92.5550313,74.4476664 C94.4619351,77.2838432 93.4174096,97.8257745 91.3251348,107.110042" id="Fill-30" fill="#35A17D"></path>
                    <path d="M92.0108867,83.0587151 C89.193247,78.0528912 77.411306,114.62176 71.3665984,114.21878 C61.7099765,113.57522 77.411306,127.114156 41.9490214,121.069448 C41.2816857,129.994258 40.2311155,127.36481 48.3967095,128.323097 C76.4626899,131.616254 79.9867544,116.995315 83.8589941,108.577053 C93.1275457,88.4280274 91.943992,84.6782937 92.0108867,83.0587151" id="Fill-32" fill="#02895D"></path>
                    <path d="M88.4930684,280.481364 C88.4930684,280.481364 84.9754516,282.659876 80.6280979,282.560743 C79.0697723,282.525281 77.4042538,282.196449 75.7564665,281.370339 C75.7564665,281.370339 72.0546876,238.41302 69.587238,226.658481 C67.1189824,214.90354 61.3611969,163.697613 61.3611969,163.697613 L38.7253789,202.874572 C38.7253789,202.874572 53.7529249,231.083207 53.7529249,258.223138 L31.8315914,255.353917 C31.8315914,255.353917 16.4324973,204.775028 15.75549,200.053708 C14.6243238,192.165365 37.8428516,160.614812 39.2452237,142.378735 C40.0185433,132.301805 38.5259035,138.846611 39.8754853,138.296946 C43.5438168,136.803097 50.5411703,140.841767 63.6513351,141.798846 C72.149388,142.419033 88.4850088,139.87542 88.3677415,140.024926 C88.3677415,140.024926 87.1096363,195.725698 88.0651031,211.502384 C89.0201669,227.277056 91.0511887,267.180186 88.4930684,280.481364" id="Fill-34" fill="#D8CF97"></path>
                    <path d="M88.4930684,280.481364 C88.4930684,280.481364 84.9754516,282.659876 80.6280979,282.560743 C77.4554323,288.129531 72.3883555,199.969082 72.4778171,198.201207 C73.3716279,180.484975 66.7272853,152.850184 65.5425226,152.765558 C55.7924093,152.069207 39.2452237,142.378735 39.2452237,142.378735 C40.0185433,132.301805 38.4183077,136.685024 39.8754853,136.685024 C42.0818035,136.685024 48.4448657,140.063612 60.9723207,140.954602 C71.8024218,141.724698 87.964761,140.024926 87.964761,140.024926 C87.964761,140.024926 87.1096363,195.725698 88.0651031,211.502384 C89.0201669,227.277056 91.0511887,267.180186 88.4930684,280.481364" id="Fill-36" fill="#CBBF74"></path>
                    <path d="M73.432478,67.5610923 C73.432478,67.5610923 73.3200464,68.7474669 70.7494337,70.9138901 C68.1788211,73.0803133 62.5068705,77.3615782 61.9487425,80.0438164 C61.9487425,80.0438164 64.4129683,75.814133 67.6904087,77.1552522 C70.9682522,78.4963713 74.0832915,84.7377334 74.0832915,84.7377334 C74.0832915,84.7377334 76.3149975,74.8340845 75.849958,69.675934 C75.849958,69.675934 75.8036153,68.5927224 74.7808507,67.7674183 C73.7576832,66.9421142 73.432478,67.5610923 73.432478,67.5610923" id="Fill-38" fill="#A3D3AA"></path>
                    <path d="M58.6943525,65.8073211 C58.6943525,65.8073211 59.3915088,74.3698509 61.9488231,80.0438164 C61.9488231,80.0438164 56.4163037,72.4613352 49.5817543,82.2618211 C49.5817543,82.2618211 54.1382549,71.6876127 54.1382549,68.0769073 C54.1382549,68.0769073 53.8589894,67.1484402 55.0679309,66.8905327 C56.2768724,66.6326252 58.5375931,64.3138754 58.6943525,65.8073211" id="Fill-40" fill="#A3D3AA"></path>
                    <polygon id="Fill-42" fill="#DF9669" points="29.3574523 135.580978 55.4206195 126.102473 56.8995579 116.085587 60.8350655 89.4364861 29.6149568 97.6194082 29.5565246 106.241579 29.5569276 106.242385"></polygon>
                    <path d="M1.06834162,121.415246 L6.84587314,124.30784 L13.0102659,127.395074 L13.3137103,127.5474 L29.3575731,135.580817 L29.6150777,97.6659928 L29.6150777,97.619247 C29.6150777,97.619247 29.6134658,97.619247 29.6102419,97.6180381 L27.5223999,96.7870923 L15.7843837,92.12219 L14.910722,91.7748208 L1.36977104,86.3934191 L1.36171143,86.3893893 L1.36050249,86.3893893 L1.35889056,86.3893893 L1.06834162,121.415246 Z" id="Fill-44" fill="#E4A27B"></path>
                    <path d="M1.36171143,86.3896311 L1.36977104,86.3936609 C1.64823057,86.5395398 7.66795337,89.6811758 14.539174,92.6596048 C19.8436064,94.9586085 24.6608353,96.3726671 27.3575809,97.0754651 C28.3211073,97.326119 29.0142338,97.4869082 29.360797,97.5646835 C29.5042581,97.5965189 29.5892869,97.6138471 29.6102419,97.6178769 L27.5223999,96.7873341 L15.7843837,92.1220288 L14.9119309,91.7750625 L14.910722,91.7750625 L1.36171143,86.3896311 Z" id="Fill-46" fill="#000000"></path>
                    <polygon id="Fill-48" fill="#FAD6AB" points="1.36114726 86.3888251 1.36034129 86.3892281 1.36155024 86.3896311 1.36960985 86.3936609 14.8779194 91.7847341 15.7491632 92.1321033 27.5028957 96.8223934 29.3606358 97.5646835 29.6149165 97.6658316 34.2121181 96.4540692 38.783126 95.2487545 60.8350252 89.4361637 47.444386 83.9495841 32.4313473 77.7984897"></polygon>
                    <polygon id="Fill-50" fill="#FFD286" points="1.36114726 86.3888251 1.36034129 86.3892281 1.36155024 86.3896311 1.36960985 86.3936609 14.8779194 91.7847341 15.7491632 92.1321033 27.5028957 96.8223934 29.3606358 97.5646835 29.6149165 97.6658316 34.2121181 96.4540692 38.783126 95.2487545 60.8350252 89.4361637 47.444386 83.9495841 32.4313473 77.7984897"></polygon>
                    <path d="M29.3574523,135.580978 L55.4206195,126.102473 L56.8995579,116.085587 C56.8995579,116.085587 40.1923891,129.014008 29.5569276,106.242385 L29.3574523,135.580978 Z" id="Fill-52" fill="#CB8F63"></path>
                    <polygon id="Fill-54" fill="#000000" points="46.2464459 83.4612926 15.7492841 92.1322242 14.8780403 91.784049 45.3808437 83.1066698"></polygon>
                    <polygon id="Fill-56" fill="#EDE2DB" points="33.0051512 124.976747 48.3035002 120.552827 48.1451288 125.46516 32.8076908 131.097215"></polygon>
                    <polygon id="Fill-58" fill="#90898B" points="36.8135991 126.248272 36.7479132 128.281711 34.2824785 129.10903 34.3469554 127.115889"></polygon>
                    <polygon id="Fill-60" fill="#90898B" points="46.989018 121.941216 46.9720929 122.464688 41.0611748 124.531172 41.0764881 124.047998"></polygon>
                    <polygon id="Fill-62" fill="#90898B" points="46.9441663 123.330411 46.9252262 123.916344 40.3610768 126.23187 40.3788079 125.690668"></polygon>
                    <polygon id="Fill-64" fill="#90898B" points="46.8995161 124.719565 46.880576 125.305499 40.3164265 127.621025 40.3337547 127.079822"></polygon>
                    <polygon id="Fill-66" fill="#EAECED" points="44.7822968 104.810394 56.229764 101.146092 56.8048172 95.2109952 45.0454431 99.268203"></polygon>
                    <polygon id="Fill-68" fill="#515151" points="55.0144151 100.903578 55.6096173 100.711357 56.0202545 96.344257 55.4125599 96.551389"></polygon>
                    <polygon id="Fill-70" fill="#515151" points="54.8969463 100.941378 55.1318839 100.865618 55.5328495 96.5102044 55.2926732 96.5924124"></polygon>
                    <polygon id="Fill-72" fill="#515151" points="54.4022474 101.10116 54.6363791 101.025802 55.0264642 96.6828815 54.7878998 96.7646866"></polygon>
                    <polygon id="Fill-74" fill="#515151" points="53.909765 101.260136 54.1426877 101.184778 54.5226983 96.8547527 54.2849398 96.9361548"></polygon>
                    <polygon id="Fill-76" fill="#515151" points="53.3162956 101.451592 53.6427098 101.346414 54.0122429 97.0292836 53.679381 97.1429241"></polygon>
                    <polygon id="Fill-78" fill="#515151" points="52.9308447 101.576153 53.1621555 101.501602 53.5220171 97.1965608 53.2858705 97.2771569"></polygon>
                    <polygon id="Fill-80" fill="#515151" points="52.4446084 101.733154 52.6747103 101.659006 53.0244974 97.3664574 52.7899627 97.4462475"></polygon>
                    <polygon id="Fill-82" fill="#515151" points="51.874794 101.917155 52.2757596 101.787798 52.6174871 97.5053244 52.2084619 97.6447557"></polygon>
                    <polygon id="Fill-84" fill="#515151" points="51.478503 102.045021 51.7065899 101.971275 52.036631 97.7033088 51.8041112 97.7826959"></polygon>
                    <polygon id="Fill-86" fill="#515151" points="50.998392 102.200088 51.22527 102.126745 51.5460425 97.8708681 51.3143287 97.9498522"></polygon>
                    <polygon id="Fill-88" fill="#515151" points="50.5204168 102.354349 50.7464889 102.281409 51.0575898 98.0376214 50.826682 98.1162026"></polygon>
                    <polygon id="Fill-90" fill="#515151" points="49.9600321 102.535367 50.3541471 102.408026 50.6571884 98.1743124 50.2550138 98.3113258"></polygon>
                    <polygon id="Fill-92" fill="#515151" points="49.5704306 102.661097 49.7948907 102.588561 50.0866486 98.368952 49.8577557 98.4467272"></polygon>
                    <polygon id="Fill-94" fill="#515151" points="49.0983792 102.813424 49.3216304 102.74129 49.6041197 98.533368 49.3764357 98.6111433"></polygon>
                    <polygon id="Fill-96" fill="#515151" points="48.6285039 102.965106 48.8509492 102.893375 49.123767 98.6975423 48.8972919 98.7749145"></polygon>
                    <polygon id="Fill-98" fill="#515151" points="48.1824448 103.109171 48.6434545 102.960472 48.9122425 98.7694743 48.4423672 98.9298605"></polygon>
                    <polygon id="Fill-100" fill="#515151" points="47.6944354 103.266777 47.9148658 103.195449 48.1695494 99.0229893 47.9446863 99.0999586"></polygon>
                    <polygon id="Fill-102" fill="#515151" points="47.2302825 103.416525 47.4499068 103.3456 47.695322 99.1848263 47.4716678 99.2609896"></polygon>
                    <polygon id="Fill-104" fill="#515151" points="46.7682653 103.565668 46.9866808 103.495146 47.2232303 99.3460588 47.0003821 99.4222221"></polygon>
                    <polygon id="Fill-106" fill="#515151" points="46.3080213 103.714408 46.5256308 103.643886 46.7533147 99.5064853 46.5312725 99.5822457"></polygon>
                    <polygon id="Fill-108" fill="#515151" points="45.8684501 103.856297 46.4169066 103.679389 46.6421727 99.5444058 46.0832388 99.7350156"></polygon>
                    <polygon id="Fill-110" fill="#515151" points="45.3932555 104.009551 45.6092531 103.939835 45.8192059 99.8250011 45.5991786 99.9003585"></polygon>
                    <path d="M6.84583284,124.307921 L6.85348947,124.729035 L12.795034,127.594227 C12.8679735,127.588988 12.941719,127.583346 13.0150614,127.575287 C13.1150006,127.56763 13.2137308,127.557958 13.31367,127.547481 C15.3035877,127.341558 17.3902208,126.808012 19.5413307,125.836023 C23.2003937,124.1834 24.972702,122.043976 25.6521271,119.736107 C25.6779178,119.652287 25.7008877,119.568467 25.7226487,119.483841 C26.812711,115.285993 24.4186038,110.577569 23.2459305,107.254189 C23.2120801,107.156264 23.1790357,107.060355 23.1472003,106.965252 C22.5576398,105.224376 22.3609853,103.898973 23.2862285,103.284025 C25.5445313,101.783325 25.8354832,99.7877657 27.3575406,97.075304 C27.4046893,96.991484 27.452644,96.9072611 27.5026136,96.8222322 C27.5090613,96.8113517 27.515106,96.7988593 27.5227626,96.7871729 C28.4842741,95.1401916 29.9245264,93.2344967 32.5201239,91.0249546 C39.6194314,84.981053 48.0401121,84.4628201 48.0401121,84.4628201 C48.0401121,84.4628201 47.8366069,84.2746282 47.4445069,83.9494229 L32.4314682,77.7983285 L1.36126815,86.3886639 L1.36046219,86.3894699 L1.35885027,86.3894699 L1.06830132,121.415327 L6.84583284,124.307921 Z" id="Fill-112" fill="#FFD172"></path>
                    <path d="M20.6235349,114.059079 C20.1943606,109.002076 27.1812366,112.432649 31.5092473,114.092123 C35.8372579,115.751194 39.9565246,119.29984 38.0286659,124.327425 C36.1012101,129.355413 32.1830307,127.06608 27.8671094,125.37598 C20.2801955,122.403999 21.262259,121.58756 20.6235349,114.059079" id="Fill-114" fill="#FFD99A"></path>
                    <path d="M61.8497302,123.710139 C57.2815431,124.713561 36.4127947,128.499563 36.4127947,128.499563 L36.4107798,128.499563 L34.5792334,128.240849 C34.7126199,128.238834 36.3313926,120.464534 36.2781992,117.094408 C36.2511995,115.353936 60.8870097,113.07629 58.0689671,112.856262 C59.867872,107.4261 76.9207981,69.8481678 89.9447251,72.5376597 C97.9716938,74.1955215 92.2159232,88.7314314 85.4837309,99.9560504 C82.5488239,104.849443 79.1617727,108.486342 74.0624574,113.682372 C67.4676814,120.40449 64.4259845,123.144355 61.8497302,123.710139" id="Fill-116" fill="#02B67C"></path>
                    <path d="M61.8015337,124.202864 C57.2333467,125.206285 36.3645982,128.992287 36.3645982,128.992287 L36.3625833,128.992287 L34.5310369,128.733573 C34.6644234,128.731559 52.7034428,124.99069 52.6506524,121.620967 C52.6232497,119.880092 62.6667328,120.858528 59.8486902,120.638501 C61.6475951,115.208339 81.6144733,102.913 87.7744333,91.0178219 C91.5435099,83.739188 92.1677268,89.2241556 85.4355344,100.448372 C82.5006274,105.342167 79.1135762,108.978663 74.0138579,114.175097 C67.4194849,120.896812 64.3777881,123.636676 61.8015337,124.202864" id="Fill-118" fill="#35A17D"></path>
                    <path d="M58.0688462,112.856262 C58.0688462,112.856262 60.8473967,110.932836 62.2940968,116.116778 C62.2940968,116.116778 63.7230656,117.187497 63.3204881,113.783923 C62.9179106,110.380753 58.9795821,110.406944 58.9795821,110.406944 L58.0688462,112.856262 Z" id="Fill-120" fill="#02895D"></path>
                    <path d="M70.5073231,0.306063694 C59.1448847,-0.341525979 47.8622365,-0.141647648 47.3024966,2.69332021 C46.0137649,9.2260372 38.5731329,12.8572945 38.3071657,12.9334579 L59.2186301,15.3880121 L70.5073231,0.306063694 Z" id="Fill-122" fill="#FFA963"></path>
                    <path d="M94.0171252,2.69029786 C82.6542839,2.04270819 72.8751559,-0.170057774 70.8122987,1.85371033 C66.8751792,5.71627848 61.7944009,13.4301313 61.8168929,13.70577 C62.2445302,18.9521732 82.7284323,16.5633048 82.7284323,16.5633048 L94.0171252,2.69029786 Z" id="Fill-124" fill="#FFA963"></path>
                    <path d="M47.4906079,34.0767167 C47.3136994,35.4109851 46.6971393,36.3495267 46.1132205,36.1734242 C45.5297047,35.9969188 45.1996637,34.772664 45.3765721,33.4383955 C45.5534806,32.1037241 46.1704437,31.1651825 46.7539595,31.341688 C47.3378783,31.5177904 47.6675163,32.7424482 47.4906079,34.0767167" id="Fill-126" fill="#1C2D41"></path>
                    <path d="M61.9713094,35.0475773 C61.7944009,36.3818458 61.1778408,37.3203874 60.593922,37.1442849 C60.0100033,36.9677794 59.6803652,35.7435246 59.8572736,34.4092562 C60.0341821,33.0745847 60.6507423,32.1360431 61.234661,32.3121456 C61.8185798,32.4886511 62.1482178,33.7133088 61.9713094,35.0475773" id="Fill-128" fill="#1C2D41"></path>
                    <path d="M59.2159705,24.5732274 C59.1563294,24.2754248 59.4904002,24.0864269 59.763218,24.0384723 C60.632044,23.8857426 62.8133774,23.7301922 63.4774893,25.8252878 C64.0243339,27.5508503 63.2816408,27.0995122 63.1760599,26.8262914 C63.0128528,26.4051768 62.5824696,25.5033064 62.1077586,25.1382061 C61.0112486,24.2951708 59.3529838,25.2558764 59.2159705,24.5732274" id="Fill-130" fill="#1C2D41"></path>
                    <path d="M43.589273,25.4813037 C43.3813351,25.1617401 43.5953177,24.6950887 43.8238077,24.4436289 C44.5527994,23.6429066 46.4987923,21.9080755 48.1880865,23.9846341 C49.5787723,25.6944803 48.6579618,25.6719134 48.4198003,25.4148119 C48.0530881,25.0182791 47.1915157,24.2268253 46.5640751,24.1192295 C45.1141512,23.8713965 44.0659989,26.2143252 43.589273,25.4813037" id="Fill-132" fill="#1C2D41"></path>
                    <path d="M56.6353639,45.4811859 C57.9881695,45.4811859 53.2201041,47.9159941 51.6150328,46.3109227 C50.0333343,44.7292243 51.320857,46.0340751 53.5545779,46.0340751 C56.0486243,46.0340751 55.7713737,45.4811859 56.6353639,45.4811859" id="Fill-134" fill="#1C2D41"></path>
                </g>
            </g>
        </g>
    </g>
</svg>