<?xml version="1.0" encoding="UTF-8"?>
<svg width="374px" height="319px" viewBox="0 0 374 319" version="1.1" xmlns="http://www.w3.org/2000/svg" xmlns:xlink="http://www.w3.org/1999/xlink">
    <title>Iphone Xs/Artwork/Project_Managers</title>
    <defs>
        <polygon id="path-1" points="0 0.140476123 245.590643 0.140476123 245.590643 251.811 0 251.811"></polygon>
        <polygon id="path-3" points="0.000627060332 0.1319031 245.590441 0.1319031 245.590441 216.09 0.000627060332 216.09"></polygon>
        <polygon id="path-5" points="0.000580753829 0.0877866787 245.590342 0.0877866787 245.590342 149.499 0.000580753829 149.499"></polygon>
        <polygon id="path-7" points="0.0440118 0.0882441 244.358012 0.0882441 244.358012 119.07 0.0440118 119.07"></polygon>
        <polygon id="path-9" points="4.36373719e-05 0.397492821 292.98917 0.397492821 292.98917 120.002773 4.36373719e-05 120.002773"></polygon>
        <polygon id="path-11" points="0 293.63413 292.98917 293.63413 292.98917 0 0 0"></polygon>
    </defs>
    <g id="Final" stroke="none" stroke-width="1" fill="none" fill-rule="evenodd">
        <g id="Desktop-1440-/-Home-/-Final" transform="translate(-824.000000, -1449.000000)">
            <g id="Scan-&amp;-Track-+-Parcel-Section-C2" transform="translate(-112.000000, 689.000000)">
                <g id="Parcel-Section" transform="translate(20.000000, 642.000000)">
                    <g id="Iphone-Xs/Parcel-Page/Artwork/10-V1-C3" transform="translate(896.000000, 63.000000)">
                        <g id="Group-21" transform="translate(83.581867, 56.907667)">
                            <g id="Group-3" transform="translate(0.000000, 3.170349)">
                                <mask id="mask-2" fill="white">
                                    <use xlink:href="#path-1"></use>
                                </mask>
                                <g id="Clip-2"></g>
                                <path d="M19.3377618,192.347927 C76.8494538,276.218189 173.979704,259.295696 219.960569,215.379593 C219.960569,215.379593 270.707762,164.537144 229.387385,116.988524 C211.919375,96.8873031 208.945271,75.6959301 204.315653,56.8348011 L204.316976,56.8343601 C197.995241,31.0790781 188.591357,9.6689691 134.992217,1.3208391 C98.9382618,-4.2952959 64.7739918,10.6078581 39.8358828,35.8529031 C0.5493978,75.6183141 -15.8412492,141.046397 19.3377618,192.347927" id="Fill-1" fill="#F6F2FF" mask="url(#mask-2)"></path>
                            </g>
                            <g id="Group-6" transform="translate(0.000000, 38.891349)">
                                <mask id="mask-4" fill="white">
                                    <use xlink:href="#path-3"></use>
                                </mask>
                                <g id="Clip-5"></g>
                                <path d="M19.3377618,156.626927 C76.8494538,240.497189 173.979704,223.574696 219.960569,179.658593 C219.960569,179.658593 261.330779,138.211208 238.95047,95.1643161 C236.544815,90.5333751 233.399603,85.8856761 229.387385,81.2675241 C211.919816,61.1680671 208.94483,39.9784581 204.316094,21.1186521 C204.301982,21.6165411 202.893869,66.3008661 153.878924,52.9914861 C115.790636,42.6500361 84.2542848,4.5917361 39.8358828,0.1319031 C17.7245838,22.5122121 2.8650888,53.0245611 0.3725568,84.5701731 C-1.5638742,109.072574 3.9592098,134.199872 19.3377618,156.626927" id="Fill-4" fill="#EDE4FF" mask="url(#mask-4)"></path>
                            </g>
                            <g id="Group-9" transform="translate(0.000000, 105.482349)">
                                <mask id="mask-6" fill="white">
                                    <use xlink:href="#path-5"></use>
                                </mask>
                                <g id="Clip-8"></g>
                                <path d="M19.3377618,90.0359271 C76.8494538,173.906189 173.979704,156.983696 219.960569,113.067593 C219.960569,113.067593 239.245058,93.7460601 244.358012,67.7879181 C246.734561,55.7248041 246.05057,42.2302041 238.95047,28.5733161 C218.802503,40.7912211 173.551052,62.9329491 139.52261,40.3555131 C101.624834,15.2101341 41.7679038,-22.6717659 0.3725568,17.9791731 C0.0426888,22.1461821 -0.0706482,26.3317131 0.0440118,30.5172441 C0.6001128,50.9487741 6.5747808,71.4226401 19.3377618,90.0359271" id="Fill-7" fill="#E4DBFA" mask="url(#mask-6)"></path>
                            </g>
                            <g id="Group-12" transform="translate(0.000000, 135.911349)">
                                <mask id="mask-8" fill="white">
                                    <use xlink:href="#path-7"></use>
                                </mask>
                                <g id="Clip-11"></g>
                                <path d="M19.3377618,59.6069271 C76.8494538,143.477189 173.979704,126.554696 219.960569,82.6385931 C219.960569,82.6385931 239.245058,63.3170601 244.358012,37.3589181 C244.358012,37.3589181 225.060293,66.8556441 170.848604,75.0004731 C111.538073,83.9113191 56.4174828,8.8297461 0.0440118,0.0882441 C0.6001128,20.5197741 6.5747808,40.9936401 19.3377618,59.6069271" id="Fill-10" fill="#BEB2DA" mask="url(#mask-8)"></path>
                            </g>
                            <path d="M159.959079,3.3792507 C198.178344,11.4667497 205.054416,48.8631087 205.054416,48.8631087" id="Stroke-13" stroke="#E4DBFA" stroke-width="1.62931034" stroke-linecap="round"></path>
                            <path d="M153.700231,2.8051569 C153.700231,2.8051569 140.360863,0.1895859 135.108112,0.2208969" id="Stroke-15" stroke="#E4DBFA" stroke-width="1.62931034" stroke-linecap="round"></path>
                            <path d="M232.701235,210.817183 C232.701235,210.817183 257.550262,195.603125 250.522927,140.978218" id="Stroke-17" stroke="#E4DBFA" stroke-width="1.62931034" stroke-linecap="round"></path>
                            <path d="M282.001507,94.4728722 C278.193472,118.05667 248.124769,125.763145 233.450053,106.9126 C222.552943,92.9139372 212.84521,72.4321332 222.232777,49.6081782 C239.593183,7.3969812 287.54179,57.0394692 282.168646,93.3941862 C282.114844,93.7580112 282.059278,94.1169852 282.001507,94.4728722" id="Fill-19" fill="#F6F2FF"></path>
                        </g>
                        <g id="Rounded-Rectangle-Elements-Bottom" transform="translate(183.376667, 116.386667) scale(1, -1) rotate(180.000000) translate(-183.376667, -116.386667) translate(21.653333, 13.533333)">
                            <circle id="Oval-Copy-16-Copy-4" fill="#3632A8" cx="301.116667" cy="125.183333" r="2.03"></circle>
                            <circle id="Oval-Copy-16-Copy" fill="#804DDF" fill-rule="nonzero" cx="265.253333" cy="129.92" r="4.06"></circle>
                            <rect id="Rectangle-Copy-30" fill="#3632A8" x="239.54" y="108.266667" width="25.7133333" height="7.25247863" rx="3.62623932"></rect>
                            <rect id="Rectangle-Copy-30-Copy-5" fill="#1F87FE" x="51.4266667" y="171.873333" width="52.78" height="14.8866667" rx="7.44333333"></rect>
                            <rect id="Rectangle-Copy-31" fill="#804DDF" fill-rule="nonzero" x="276.08" y="131.273333" width="47.3666667" height="9.47333333" rx="4.73666667"></rect>
                            <rect id="Rectangle-Copy-33-Copy" fill="#804DDF" fill-rule="nonzero" x="277.433333" y="119.093333" width="12.18" height="4.06" rx="2.03"></rect>
                            <rect id="Rectangle-Copy-33-Copy-7" fill="#1F87FE" x="289.613333" y="147.513333" width="12.18" height="4.06" rx="2.03"></rect>
                            <rect id="Rectangle-Copy-34-Copy-2" fill="#1F87FE" x="40.6" y="156.986667" width="24.36" height="6.76666667" rx="3.38333333"></rect>
                            <circle id="Oval-Copy-16-Copy-7" fill="#3632A8" cx="110.296667" cy="186.083333" r="2.03"></circle>
                            <circle id="Oval-Copy-17" fill="#804DDF" fill-rule="nonzero" cx="30.45" cy="194.203333" r="7.44333333"></circle>
                            <rect id="Rectangle-Copy-34" fill="#3632A8" x="48.72" y="198.072479" width="25.7133333" height="7.25247863" rx="3.62623932"></rect>
                        </g>
                        <g id="Rounded-Rectangle-Elements-Bottom-Copy" transform="translate(207.060000, 329.536667) rotate(180.000000) translate(-207.060000, -329.536667) translate(20.300000, 285.553333)">
                            <circle id="Oval-Copy-16" fill="#804DDF" fill-rule="nonzero" cx="303.146667" cy="50.0733333" r="4.06"></circle>
                            <circle id="Oval-Copy-16-Copy-5" fill="#804DDF" fill-rule="nonzero" cx="357.28" cy="56.84" r="5.41333333"></circle>
                            <circle id="Oval-Copy-16-Copy-2" fill="#3632A8" cx="263.223333" cy="31.8033333" r="2.03"></circle>
                            <circle id="Oval-Copy-16-Copy-6" fill="#2B2886" fill-rule="nonzero" cx="42.63" cy="27.7433333" r="2.03"></circle>
                            <circle id="Oval-Copy-16-Copy-3" fill="#3632A8" cx="290.29" cy="56.1633333" r="2.03"></circle>
                            <circle id="Oval-Copy-16-Copy" fill="#7265E3" fill-rule="nonzero" cx="234.126667" cy="66.3133333" r="4.06"></circle>
                            <rect id="Rectangle-Copy-30" fill="#3632A8" x="272.02" y="29.7733333" width="32.48" height="9.16102564" rx="4.58051282"></rect>
                            <rect id="Rectangle-Copy-30-Copy" fill="#3632A8" x="295.026667" y="63.6066667" width="52.78" height="14.8866667" rx="7.44333333"></rect>
                            <rect id="Rectangle-Copy-30-Copy-4" fill="#3632A8" x="48.72" y="9.47333333" width="52.78" height="14.8866667" rx="7.44333333"></rect>
                            <rect id="Rectangle-Copy-30-Copy-5" fill="#1F87FE" x="0" y="55.4866667" width="52.78" height="14.8866667" rx="7.44333333"></rect>
                            <rect id="Rectangle-Copy-30-Copy-3" fill="#3632A8" x="31.1266667" y="41.9533333" width="29.7733333" height="8.12" rx="4.06"></rect>
                            <rect id="Rectangle-Copy-30-Copy-2" fill="#3632A8" x="16.24" y="5.69267892e-12" width="13.5333333" height="4.06" rx="2.03"></rect>
                            <rect id="Rectangle-Copy-31" fill="#7265E3" fill-rule="nonzero" x="326.153333" y="23.0066667" width="47.3666667" height="9.47333333" rx="4.73666667"></rect>
                            <rect id="Rectangle-Copy-32" fill="#1F87FE" x="311.266667" y="41.9533333" width="29.7733333" height="13.5333333" rx="6.76666667"></rect>
                            <rect id="Rectangle-Copy-33-Copy-5" fill="#804DDF" fill-rule="nonzero" x="299.086667" y="83.9066667" width="8.12" height="2.70666667" rx="1.35333333"></rect>
                            <rect id="Rectangle-Copy-33-Copy" fill="#804DDF" fill-rule="nonzero" x="239.54" y="23.0066667" width="12.18" height="4.06" rx="2.03"></rect>
                            <rect id="Rectangle-Copy-33-Copy-3" fill="#804DDF" fill-rule="nonzero" x="94.7333333" y="31.1266667" width="12.18" height="4.06" rx="2.03"></rect>
                            <rect id="Rectangle-Copy-33-Copy-2" fill="#1F87FE" x="351.866667" y="83.9066667" width="12.18" height="4.06" rx="2.03"></rect>
                            <rect id="Rectangle-Copy-33-Copy-4" fill="#1F87FE" x="27.0666667" y="33.8333333" width="12.18" height="4.06" rx="2.03"></rect>
                            <rect id="Rectangle-Copy-34-Copy" fill="#1F87FE" x="0" y="8.12" width="24.36" height="6.76666667" rx="3.38333333"></rect>
                        </g>
                        <g id="Group-256" transform="translate(37.893333, 55.486667)">
                            <path d="M278.221148,209.956109 L115.006468,115.825062 C106.679149,110.987859 2.96577034,173.045875 2.96577034,173.045875 C-13.8970193,190.260818 169.545765,284.291936 169.545765,284.291936 C177.883994,289.136121 286.56025,214.80073 278.221148,209.956109" id="Fill-1" fill="#E4DBFA"></path>
                            <polygon id="Fill-3" fill="#BEB2DA" points="138.246598 254.169625 102.256675 125.994882 114.630489 118.84839 271.024648 209.105312 165.636904 269.977263"></polygon>
                            <polygon id="Fill-5" fill="#FFFFFF" points="222.963188 242.519189 148.025166 199.253171 150.891705 197.598442 225.829291 240.86446"></polygon>
                            <polygon id="Fill-7" fill="#FFFFFF" points="143.311806 132.671924 33.4538493 196.099716 30.5873104 194.444987 140.445703 131.017195"></polygon>
                            <polygon id="Fill-9" fill="#FFFFFF" points="203.902122 167.654259 93.7792868 231.234346 90.9127479 229.579617 201.03602 165.999094"></polygon>
                            <polygon id="Fill-11" fill="#FFFFFF" points="256.888277 197.940472 146.765442 261.520995 142.054351 258.801078 252.177187 195.220991"></polygon>
                            <polygon id="Fill-13" fill="#FFFFFF" points="265.729951 203.045259 155.607115 266.625782 150.896025 263.905865 261.01886 200.325778"></polygon>
                            <polygon id="Fill-15" fill="#FFFFFF" points="122.801368 213.816533 41.446034 166.845266 44.312573 165.190537 125.667471 212.161804"></polygon>
                            <polygon id="Fill-17" fill="#FFFFFF" points="167.467884 188.027894 86.1125497 141.056626 88.9790886 139.401897 170.333987 186.373164"></polygon>
                            <polygon id="Fill-19" fill="#FFFFFF" points="95.1811374 196.289583 94.4262109 195.704406 101.419972 186.668415 102.174899 187.254028"></polygon>
                            <polygon id="Fill-21" fill="#FFFFFF" points="101.778715 182.364417 78.3144641 168.82025 78.7927297 167.992885 102.256981 181.537489"></polygon>
                            <path d="M106.029126,181.555991 C104.569456,181.555991 103.106731,181.876726 101.992669,182.518632 C101.004719,183.09159 100.460545,183.818589 100.460545,184.573079 C100.45707,185.331497 101.004719,186.06155 101.992669,186.634072 C104.219921,187.913956 107.841386,187.917447 110.069074,186.630581 C111.056588,186.06155 111.604237,185.331497 111.601628,184.573079 C111.601628,183.818589 111.056588,183.09159 110.069074,182.521686 C108.955448,181.876726 107.492287,181.555991 106.029126,181.555991 M106.029126,188.537534 C104.396652,188.537534 102.760687,188.178835 101.514404,187.461001 C100.218374,186.709565 99.50403,185.684087 99.50403,184.573079 C99.50403,183.462508 100.218374,182.439648 101.514404,181.691267 C104.006098,180.253416 108.055646,180.253416 110.54734,181.694322 C111.84337,182.439648 112.557713,183.462508 112.557713,184.573079 C112.557713,185.684087 111.84337,186.709565 110.54734,187.457946 C109.301056,188.178835 107.665091,188.537534 106.029126,188.537534" id="Fill-23" fill="#FFFFFF"></path>
                            <polygon id="Fill-25" fill="#FFFFFF" points="138.639509 203.953832 110.068812 187.461088 110.547078 186.630669 139.117774 203.129086"></polygon>
                            <polygon id="Fill-27" fill="#FFFFFF" points="122.188132 193.873338 121.709867 193.042919 136.047362 184.7684 136.525191 185.592274"></polygon>
                            <polygon id="Fill-29" fill="#FFFFFF" points="153.244414 195.522089 93.1710255 160.838233 93.6492911 160.013923 153.722679 194.697342"></polygon>
                            <polygon id="Fill-31" fill="#FFFFFF" points="110.075358 182.248473 109.597092 181.420672 119.922567 175.458498 120.400833 176.282808"></polygon>
                            <path d="M9.24235173,179.718465 L114.630532,118.848695 L271.024691,209.105617 L165.636947,269.977133 L9.24235173,179.718465 Z M114.630532,117.084436 L6.18642658,179.719338 L165.636947,271.740955 L274.08018,209.106053 L114.630532,117.084436 Z" id="Fill-33" fill="#6D378F"></path>
                            <g id="Group-37" transform="translate(0.000000, 173.631357)">
                                <mask id="mask-10" fill="white">
                                    <use xlink:href="#path-9"></use>
                                </mask>
                                <g id="Clip-36"></g>
                                <path d="M292.95474,47.8950266 C292.965213,51.0892823 290.855782,54.2874653 286.636485,56.7246125 L202.901605,105.087912 C194.520611,109.929042 180.969898,109.937769 172.630796,105.093148 C172.63036,105.092712 6.21880551,9.1018394 6.21880551,9.1018394 C2.08067353,6.69960207 0.00964385919,3.55116569 4.36373719e-05,0.397492821 L0.0327716663,11.6773171 C0.0428082618,14.8305536 2.11514705,17.9785536 6.25153354,20.3825364 L172.664833,116.373845 C181.004371,121.217594 194.554212,121.209302 202.935642,116.368172 L286.670958,68.0040004 C290.889383,65.5681623 292.998814,62.3691065 292.989246,59.1744145 L292.95474,47.8950266 Z" id="Fill-35" fill="#4472C0" mask="url(#mask-10)"></path>
                            </g>
                            <polygon id="Fill-38" fill="#212526" points="7.35878821 180.099463 23.2833743 189.293857 131.724425 126.684265 115.800276 117.489435"></polygon>
                            <path d="M165.548101,270.823392 L8.30519553,180.07555 L115.248176,118.307723 L272.490645,209.055129 L165.548101,270.823392 Z M286.733011,212.821906 L120.319711,116.830598 C111.992391,111.993395 98.4307689,111.995577 90.0484661,116.835834 L6.31402225,165.199133 C-2.0669714,170.039827 -2.10973602,177.895427 6.21802004,182.734375 L172.630883,278.724811 C180.969549,283.569432 194.520262,283.559832 202.901255,278.719138 L286.637445,230.356712 C295.018002,225.516018 295.072549,217.666528 286.733011,212.821906 L286.733011,212.821906 Z" id="Fill-40" fill="#C5DBFF"></path>
                            <path d="M246.352689,240.471593 L241.894695,237.898733 C239.670498,236.614922 235.942993,236.754998 233.41028,238.218159 L217.490494,247.412117 C216.644802,247.900855 215.994605,248.509597 215.611905,249.172448 C214.748322,250.668337 215.283752,252.317394 216.942409,253.274361 L221.400839,255.847221 C223.626782,257.131905 227.353413,256.992702 229.88569,255.529541 L245.804603,246.335583 C246.650732,245.846408 247.300929,245.237666 247.683628,244.574378 C248.547212,243.078053 248.012654,241.429433 246.352689,240.471593" id="Fill-42" fill="#4472C0"></path>
                            <path d="M246.352689,242.124576 L241.895131,239.551717 C239.670498,238.267905 235.942993,238.407981 233.41028,239.870706 L217.490494,249.064664 C216.644802,249.553402 215.994605,250.16258 215.611905,250.825432 C215.482303,251.049728 215.445647,251.279261 215.378446,251.507048 C215.626306,252.191282 216.146463,252.81486 216.942409,253.274361 L221.400839,255.847221 C223.627218,257.131905 227.353413,256.992265 229.885253,255.529541 L245.804603,246.335146 C246.651168,245.846408 247.300929,245.237666 247.683628,244.574378 C247.813231,244.350519 247.850323,244.12055 247.917525,243.89189 C247.669228,243.207219 247.149071,242.584078 246.352689,242.124576" id="Fill-44" fill="#FFFFFF"></path>
                            <path d="M62.7364896,137.401735 L41.8538252,149.463977 C40.230515,150.401308 40.05422,151.819086 41.4606525,152.629868 C42.8666486,153.44196 45.3221236,153.339412 46.9454338,152.402081 L67.8285345,140.340275 C69.4518447,139.402945 69.6281397,137.985166 68.2217072,137.173948 C66.8157111,136.362293 64.3602362,136.464404 62.7364896,137.401735" id="Fill-46" fill="#FFFFFF"></path>
                            <path d="M26.9069781,165.46602 C24.9947884,166.570918 21.9043898,166.569609 20.0044186,165.46602 C18.104011,164.36243 18.1118658,162.572425 20.0240554,161.467964 C21.936245,160.363938 25.0283892,160.363065 26.9287968,161.466654 C28.8287679,162.570244 28.8191677,164.361994 26.9069781,165.46602" id="Fill-48" fill="#212121"></path>
                            <path d="M68.3074983,116.220547 C68.3070619,109.706797 63.7347381,107.066736 58.093735,110.323393 C58.5514911,114.503417 50.9162601,127.53659 47.8799718,128.013983 C47.8799718,134.527297 52.4531683,137.167795 58.093735,133.910701 C63.7347381,130.654044 68.3074983,122.733861 68.3074983,116.220547 L68.3074983,116.220547 Z M78.5216979,105.60532 L77.6467686,105.100436 C78.2131817,107.079391 78.5208252,109.346352 78.5208252,111.880374 L78.5208252,115.041029 C78.5208252,126.377145 64.9077106,155.358906 59.9077406,165.62198 C59.3849649,166.694586 66.2643965,174.009519 66.2643965,174.009519 L58.093735,169.291883 C58.093735,169.291883 37.6662085,152.515059 37.6662085,138.628338 L37.6662085,135.467246 C37.6662085,121.580962 46.8117289,105.043707 58.093735,98.5299566 C63.7814301,95.2462444 68.9240944,95.1402056 72.6275981,97.6192446 L72.6289072,97.6170628 L80.3893775,102.074184 L78.5216979,105.60532 Z" id="Fill-50" fill="#EF5D4E"></path>
                            <path d="M76.7456133,121.10802 C76.8525248,114.595579 72.3238384,111.880461 66.6300341,115.044171 C60.9366662,118.20788 56.234303,126.051698 56.1273914,132.564139 C56.0204798,139.076581 60.5491663,141.791698 66.2429706,138.627989 C71.9363385,135.464279 76.6387017,127.620461 76.7456133,121.10802 L76.7456133,121.10802 Z M86.9772679,120.096506 C86.7494808,133.981045 65.6612844,174.004806 65.6612844,174.004806 C65.6612844,174.004806 45.5121643,156.89372 45.7403878,143.008744 L45.7923162,139.848526 C46.0209761,125.963987 55.4370482,109.579026 66.8242204,103.252044 C78.2109562,96.924625 87.2574198,103.051748 87.0291963,116.936287 L86.9772679,120.096506 Z" id="Fill-52" fill="#D92E1A"></path>
                            <polygon id="Fill-54" fill="#FF920F" points="132.659836 127.259013 100.369926 110.259639 100.225923 96.9371489 99.8419142 61.4931299 139.086312 77.7223049 137.626642 88.9742013 137.625769 88.975074"></polygon>
                            <path d="M172.063859,113.83031 L164.016692,116.572483 L155.429729,119.498805 L155.00732,119.643244 L132.659749,127.258839 L139.077497,77.7836591 L139.086225,77.7225667 C139.086225,77.7225667 139.08797,77.7225667 139.092334,77.721694 L141.962364,77.0104048 L158.096409,73.0193308 L159.296873,72.7221603 L177.909085,68.1184176 L177.920431,68.1149266 L177.922176,68.1149266 L177.923922,68.1149266 L172.063859,113.83031 Z" id="Fill-56" fill="#FFAD01"></path>
                            <path d="M177.920387,68.1150138 L177.909042,68.1185048 C177.519796,68.2594535 169.112184,71.283087 159.623674,73.9419121 C152.298704,75.9941777 145.766626,76.9795096 142.126397,77.4154469 C140.824694,77.5703596 139.8926,77.6567616 139.427425,77.6964716 C139.234548,77.712181 139.120654,77.7200358 139.09229,77.7217813 L141.96232,77.0104921 L158.096366,73.0189817 L159.295084,72.7222476 L159.29683,72.7222476 L177.920387,68.1150138 Z" id="Fill-58" fill="#000000"></path>
                            <polygon id="Fill-60" fill="#FAD6AB" points="177.92126 68.1141847 177.922133 68.1150575 177.920387 68.1150575 177.909042 68.1185485 159.337849 72.7410553 158.140439 73.0386622 141.981957 77.059846 139.427425 77.6965152 139.077453 77.7833536 133.300302 75.3841709 127.555442 72.9989521 99.8417833 61.4930863 118.276391 56.725267 138.944796 51.3801254"></polygon>
                            <polygon id="Fill-62" fill="#FFCF58" points="177.92126 68.1141847 177.922133 68.1150575 177.920387 68.1150575 177.909042 68.1185485 159.337849 72.7410553 158.140439 73.0386622 141.981957 77.059846 139.427425 77.6965152 139.077453 77.7833536 133.300302 75.3841709 127.555442 72.9989521 99.8417833 61.4930863 118.276391 56.725267 138.944796 51.3801254"></polygon>
                            <path d="M132.659836,127.259013 L100.369926,110.259639 L100.225923,96.9371489 C100.225923,96.9371489 119.704337,116.767716 137.625769,88.975074 L132.659836,127.259013 Z" id="Fill-64" fill="#F27204"></path>
                            <polygon id="Fill-66" fill="#000000" points="119.925316 56.3022464 158.139872 73.0384876 159.337718 72.7404444 121.117053 55.9941665"></polygon>
                            <polygon id="Fill-68" fill="#EDE2DB" points="129.793166 112.784541 110.636796 104.292272 109.968272 110.72442 128.960565 120.79898"></polygon>
                            <polygon id="Fill-70" fill="#90898B" points="124.601846 113.764243 124.325185 116.426996 127.39202 117.944703 127.663444 115.334752"></polygon>
                            <polygon id="Fill-72" fill="#90898B" points="112.102968 106.336508 112.031839 107.021615 119.370336 110.768756 119.436229 110.136014"></polygon>
                            <polygon id="Fill-74" fill="#90898B" points="111.914193 108.15575 111.834337 108.922895 119.979689 113.110337 120.052999 112.402103"></polygon>
                            <polygon id="Fill-76" fill="#90898B" points="111.724981 109.974512 111.645125 110.742093 119.790477 114.929099 119.864224 114.220865"></polygon>
                            <polygon id="Fill-78" fill="#EAECED" points="118.031498 84.3959428 103.759896 77.5797853 104.067103 69.739895 118.675586 77.1237747"></polygon>
                            <polygon id="Fill-80" fill="#515151" points="105.387744 77.4800302 104.646345 77.1235129 104.888533 71.3568342 105.643896 71.7351702"></polygon>
                            <polygon id="Fill-82" fill="#515151" points="105.533929 77.55033 105.241123 77.4093813 105.494656 71.6601576 105.793135 71.8098338"></polygon>
                            <polygon id="Fill-84" fill="#515151" points="106.150569 77.8464969 105.859071 77.7064209 106.123514 71.9755249 106.420248 72.1243283"></polygon>
                            <polygon id="Fill-86" fill="#515151" points="106.764198 78.1418346 106.474009 78.002195 106.749797 72.2896267 107.045659 72.4375574"></polygon>
                            <polygon id="Fill-88" fill="#515151" points="107.503982 78.4972174 107.097282 78.3017219 107.384416 72.6074813 107.798098 72.8151952"></polygon>
                            <polygon id="Fill-90" fill="#515151" points="107.984255 78.72819 107.696248 78.5898595 107.993855 72.9130738 108.286662 73.0601317"></polygon>
                            <polygon id="Fill-92" fill="#515151" points="108.590247 79.0192512 108.30355 78.8817935 108.612066 73.2228991 108.903564 73.3690843"></polygon>
                            <polygon id="Fill-94" fill="#515151" points="109.300184 79.3606264 108.800536 79.1206209 109.118216 73.4765632 109.626591 73.7314054"></polygon>
                            <polygon id="Fill-96" fill="#515151" points="109.794115 79.5979701 109.510036 79.4613851 109.839498 73.8382734 110.12925 73.9835858"></polygon>
                            <polygon id="Fill-98" fill="#515151" points="110.392427 79.8856276 110.109657 79.749479 110.449592 74.1442586 110.737599 74.2882619"></polygon>
                            <polygon id="Fill-100" fill="#515151" points="110.988164 80.1719761 110.706267 80.0362638 111.057112 74.4484984 111.343373 74.5920653"></polygon>
                            <polygon id="Fill-102" fill="#515151" points="111.686624 80.5078093 111.195267 80.2717311 111.554403 74.6979296 112.054487 74.9484081"></polygon>
                            <polygon id="Fill-104" fill="#515151" points="112.172003 80.7409201 111.892287 80.606517 112.263641 75.0532251 112.548157 75.1959193"></polygon>
                            <polygon id="Fill-106" fill="#515151" points="112.760104 81.0238648 112.481697 80.8898981 112.863088 75.3540611 113.146294 75.4958826"></polygon>
                            <polygon id="Fill-108" fill="#515151" points="113.346023 81.3051077 113.068489 81.1720137 113.460352 75.6531953 113.741814 75.794144"></polygon>
                            <polygon id="Fill-110" fill="#515151" points="113.901745 81.5722993 113.327477 81.2960748 113.723268 75.7846747 114.307572 76.0774815"></polygon>
                            <polygon id="Fill-112" fill="#515151" points="114.509831 81.8646261 114.234916 81.7324048 114.64598 76.2476236 114.925695 76.3876995"></polygon>
                            <polygon id="Fill-114" fill="#515151" points="115.088114 82.1425089 114.814507 82.0111604 115.235608 76.5429613 115.514014 76.6821645"></polygon>
                            <polygon id="Fill-116" fill="#515151" points="115.664258 82.4194753 115.391524 82.2885632 115.822225 76.8369463 116.099323 76.9757131"></polygon>
                            <polygon id="Fill-118" fill="#515151" points="116.237871 82.6952198 115.966447 82.5647441 116.406748 77.1301458 116.682536 77.2680399"></polygon>
                            <polygon id="Fill-120" fill="#515151" points="116.785477 82.9585714 116.102115 82.6299819 116.544598 77.199311 117.239305 77.5475372"></polygon>
                            <polygon id="Fill-122" fill="#515151" points="117.37781 83.2432179 117.108568 83.1136149 117.568069 77.7117447 117.841239 77.8492024"></polygon>
                            <polygon id="Fill-124" fill="#000000" points="133.600352 70.7571258 126.976199 73.2130371 126.301566 79.7080235 131.702563 82.0997879 132.526437 75.7086584 139.101279 72.9538311"></polygon>
                            <path d="M127.637698,73.0361748 L126.925973,73.700772 C126.925536,73.704263 130.540456,75.0037839 132.591413,75.7111457 C132.797817,75.577179 133.026041,75.4720129 133.256446,75.3677196 C131.612626,74.6856675 129.6952,73.8897218 127.637698,73.0361748" id="Fill-126" fill="#B28567"></path>
                            <path d="M140.631337,92.8754259 L140.962108,92.8173882 L141.360517,92.6829851 C141.418555,92.681676 141.49012,92.671203 141.586122,92.6445843 L141.662924,92.6026924 L141.772018,92.5826192 L141.782054,92.5904739 L141.813473,92.5813101 L141.819582,92.5743281 L141.881984,92.562546 L142.060897,92.4957808 L142.274284,92.4534526 L142.324467,92.4342521 L142.33974,92.4355612 L142.339303,92.4290156 L142.600691,92.3290861 L142.797059,92.3085765 L143.025283,92.2117015 L143.353,92.1545366 L143.904576,91.9677686 L144.265457,91.9014398 L144.621974,91.7687822 L144.719286,91.7753278 L144.718413,91.741727 L144.72234,91.7364905 C144.848889,91.6959078 144.953182,91.6474703 145.025184,91.5859416 L145.059221,91.5763414 L145.091512,91.6016511 L145.220243,91.4615751 C145.222425,91.5772141 145.321045,91.6199788 145.514795,91.5894326 L145.642652,91.4148831 L145.837711,91.4314653 L146.191174,91.2966258 L146.644567,91.1709502 L146.967047,91.0483292 C146.967919,91.0945848 147.096213,91.0937121 147.352801,91.0452746 L147.577097,90.8790162 L147.868158,90.8314514 C147.967652,90.7978507 148.04009,90.7651226 148.087654,90.7337037 C148.115582,90.7961052 148.226858,90.8026508 148.431953,90.7459222 L148.558065,90.6774115 L148.591666,90.6678113 L148.623085,90.6926846 L148.654067,90.6843935 L148.687668,90.6416289 L149.103532,90.5595906 L149.422522,90.437406 L149.613653,90.4177692 L149.837513,90.3222033 L150.156502,90.2672202 L150.695424,90.0843796 L151.047141,90.0206691 L151.394931,89.8906297 L151.49006,89.8976117 L151.489624,89.8670655 L151.617481,89.8317193 L151.904179,89.7859 L152.095311,89.663279 L152.192622,89.6724429 L152.447464,89.5650949 L152.76689,89.5131664 L152.893875,89.4416012 L153.211991,89.3896727 L153.496507,89.27447 L154.480966,89.0711199 L154.701334,88.9764268 L154.734063,88.9676993 L154.923885,88.9480625 L155.23982,88.7914043 L155.492044,88.7573672 L155.522153,88.7490761 L155.522153,88.7276938 C155.550081,88.72333 155.5767,88.719839 155.609865,88.712857 L155.703249,88.6504556 L155.829361,88.6517647 L155.859034,88.6434736 L156.078094,88.5465987 L156.174096,88.5897997 L156.737018,88.3641944 L157.018043,88.355467 L157.20612,88.2337187 L157.454416,88.165208 L157.829698,88.0975701 C157.830134,88.0290594 157.944464,87.963167 158.172687,87.9003292 C158.172687,87.9003292 158.514368,87.8152363 158.513932,87.8710921 L158.513495,87.9073112 C158.579388,87.8798196 158.627825,87.8549463 158.667535,87.8309458 C158.719027,87.8322549 158.792338,87.8239638 158.890959,87.8030178 L158.98347,87.7410528 L159.1074,87.7427983 L159.137073,87.7349435 L159.353515,87.6385049 L159.447771,87.6817059 L160.004584,87.4582826 L160.281682,87.4499915 L160.46845,87.3295524 L160.713692,87.2619144 L161.083736,87.1947129 C161.084609,87.1266386 161.198066,87.0616189 161.423672,86.9992174 L161.885355,86.8351409 C161.803317,86.8700508 161.761425,86.9158701 161.760552,86.9712895 L161.760116,87.0075085 C161.832554,86.976526 161.930302,86.9372524 162.01714,86.8984151 C162.057723,86.9398706 162.162016,86.9381251 162.332638,86.890124 L162.45395,86.8242316 L162.485805,86.8150677 L162.514606,86.839941 L162.544279,86.8316499 L162.576571,86.7901944 L162.971053,86.7133927 L163.276078,86.5960081 L163.456737,86.5785532 L163.670124,86.4864783 L163.972531,86.4354226 L164.485706,86.2608731 L164.819532,86.2006535 L165.15074,86.076287 L165.240196,86.0841418 L165.241069,86.0509774 L165.24456,86.0461772 C165.362381,86.0082127 165.459692,85.9619571 165.529076,85.9030467 L165.560494,85.8943192 L165.588422,85.9191925 L165.712789,85.7839166 C165.710171,85.8973738 165.797882,85.9397021 165.976795,85.9126469 L166.101598,85.7442066 L166.279202,85.7629707 L166.609537,85.635986 L167.030201,85.5199105 L167.330863,85.4038351 C167.330426,85.41649 167.342645,85.4252174 167.361845,85.4304539 L167.387155,85.4557636 C167.406355,85.4505271 167.420756,85.4431088 167.439083,85.4369995 C167.497121,85.4356904 167.576977,85.4260902 167.684762,85.406017 L167.897276,85.2467406 L167.913422,85.2441224 C167.942659,85.3060874 168.02426,85.3274697 168.161282,85.3065238 L168.265139,85.1660115 C168.284339,85.1577204 168.299612,85.150302 168.314885,85.1424473 L168.461071,85.1581567 L168.788787,85.0316083 L169.206397,84.9164057 L169.50444,84.801203 C169.503131,84.8470223 169.620079,84.847895 169.855285,84.8038213 L170.06649,84.6454176 L170.332677,84.6039621 C170.509845,84.5428698 170.599302,84.4848321 170.601484,84.429849 L170.608466,84.2282443 L170.58141,84.2003164 L170.431734,84.2766818 L169.956087,84.4084667 L169.456003,84.4791592 C169.454694,84.5188692 169.404511,84.5555246 169.305017,84.588689 L168.91839,84.6956006 L168.770896,84.7012734 L168.740786,84.7444744 L168.592855,84.7501473 L168.437506,84.8225853 L168.414815,84.7994575 L168.264266,84.8766957 L167.947895,84.9639704 L167.636761,85.0145898 L167.581778,85.0377176 L167.279807,85.0809186 C167.278498,85.1206286 167.228315,85.157284 167.128385,85.1908848 L166.738704,85.2986691 L166.589464,85.3039056 L166.55979,85.3479793 L166.410114,85.3540885 L166.047051,85.5220924 L165.446165,85.6207129 L165.241505,85.7071149 C165.182595,85.6935873 165.046446,85.7097331 164.829132,85.7581706 L164.828259,85.7917714 L164.795968,85.8362815 L164.795095,85.8690095 L164.884988,85.8441362 L164.884115,85.8799189 L164.73313,85.9213744 L164.493561,85.9200652 L164.372685,85.9859577 L164.222573,85.9946851 L164.038423,86.0784689 L163.796236,86.1452341 L163.219786,86.3402931 L163.039564,86.3215291 L163.007272,86.3306929 L162.977598,86.3721484 L162.764648,86.3978945 L162.397658,86.5322976 L162.035031,86.5309884 L162.011467,86.5632801 L161.949066,86.5427705 L161.857863,86.5680802 L161.582075,86.6117176 L160.779584,86.9355069 L160.502487,86.9787079 L160.07004,87.1676577 L159.356569,87.3648986 L159.048053,87.4142089 L159.048053,87.4499915 C158.917577,87.4862105 158.828993,87.5477392 158.762665,87.6227955 L158.763974,87.4927561 L158.702009,87.4408277 L158.609498,87.4661373 L158.330655,87.5106474 L157.518563,87.8374914 L157.238411,87.8820015 L156.801165,88.0718241 L156.078966,88.2716832 L155.766959,88.3218662 L155.766959,88.3580852 C155.662666,88.3873222 155.5863,88.4322687 155.52259,88.48507 L155.52259,88.434887 C155.52259,88.3886314 155.407387,88.3860131 155.176545,88.427905 L155.050433,88.5653627 C155.017705,88.528271 154.870211,88.5348166 154.607514,88.5849995 L154.417692,88.7071842 L153.910189,88.8481329 L153.686329,88.942826 L153.686329,88.9096616 L153.622619,88.9271165 L153.338103,89.0392646 L153.210682,88.9716267 L152.95584,89.1117026 L152.795254,89.1562127 L152.637287,89.1636311 L152.540412,89.2269053 L152.445719,89.2526513 L152.381572,89.2007229 L152.157276,89.3329441 L151.998436,89.3399261 C151.784613,89.4176006 151.624027,89.4861113 151.517552,89.5450217 L151.517552,89.5428399 C151.517115,89.490475 151.359148,89.5000752 151.042777,89.5712041 L151.043214,89.6043686 L151.010486,89.6497514 L151.010486,89.6837886 L151.105615,89.6571698 L151.105615,89.6938252 L150.946775,89.7378989 L150.692369,89.7383353 L150.56713,89.8064096 L150.406981,89.8168826 L150.21454,89.9037209 L149.959698,89.9744135 L149.354884,90.1782 L149.163316,90.1611814 L149.129715,90.1707816 L149.098732,90.2122371 L148.874,90.2414742 L148.488682,90.3811138 L148.104237,90.383732 L148.061472,90.4422061 L147.959361,90.4941346 L147.442258,90.6372651 L146.895045,90.7179943 C146.895918,90.758577 146.84268,90.7965416 146.735332,90.8327606 L146.315541,90.948836 L146.152773,90.9571271 L146.122664,91.0025099 L145.960333,91.010801 L145.57196,91.1884052 L144.92089,91.297935 L144.702267,91.3895734 C144.637247,91.3760459 144.489753,91.3948099 144.254548,91.4480475 L144.25542,91.4820847 L144.222256,91.5283403 L144.222692,91.5619411 L144.320004,91.5353223 L144.320876,91.5719777 L144.158109,91.6169241 L143.895848,91.6182333 L143.767555,91.6876167 L143.603914,91.6993988 L143.406674,91.7879826 L143.146158,91.8599843 L142.526944,92.0681346 L142.332758,92.0519887 C142.275593,92.0327883 142.122862,92.0506796 141.868456,92.1078446 L141.869329,92.1418817 L141.836164,92.1885737 L141.836601,92.2051559 L141.638924,92.2771576 L141.242696,92.2810849 L141.178549,92.3705416 L141.183349,92.3740325 L141.014036,92.4495252 L140.750903,92.5223996 L140.301874,92.6738213 C140.287911,92.7781146 140.272637,92.8845898 140.255619,92.9884467 L140.400931,92.97361 L140.631337,92.8754259 Z" id="Fill-128" fill="#593D2D"></path>
                            <path d="M170.446658,86.8390683 L170.52826,86.6981196 L170.562297,86.3184744 L170.646954,85.8502454 L170.677064,85.5024556 C170.718955,85.521656 170.773939,85.4029624 170.842013,85.1459383 L170.79183,84.8692773 L170.876486,84.5799616 C170.901796,84.3753023 170.889109,84.2614087 170.837649,84.2382809 L170.651754,84.1553699 L170.612917,84.1728249 L170.615535,84.3552291 L170.51866,84.8924051 L170.353711,85.4300176 C170.38993,85.4461634 170.400839,85.5111831 170.386002,85.6250766 L170.308328,86.057523 L170.245054,86.209381 L170.272545,86.256073 L170.209271,86.4079311 L170.205344,86.5929535 L170.173488,86.6069175 L170.176107,86.7880126 L170.112396,87.1397298 L170.017703,87.4709374 L170.014212,87.5350844 L169.916028,87.8527644 C169.952247,87.8693466 169.963156,87.9343663 169.948756,88.0473871 L169.871518,88.4763425 L169.809116,88.626455 L169.835735,88.673147 L169.773334,88.8232596 L169.764606,89.2482876 L169.583075,89.8775385 L169.57042,90.1123076 C169.531146,90.1646724 169.485327,90.3034392 169.432089,90.5355901 L169.461763,90.5491177 L169.487945,90.5988643 L169.517619,90.6123918 L169.53551,90.5150805 L169.567365,90.5299172 L169.538128,90.6939937 L169.429035,90.9265809 L169.435144,91.0692751 L169.375797,91.2193877 L169.369688,91.4310289 L169.32256,91.6919804 L169.24314,92.3255951 L169.146701,92.4909807 L169.140155,92.5250179 L169.164156,92.5704007 L169.093027,92.7850966 L169.052008,93.189615 L168.890986,93.5339139 L168.92415,93.5967517 L168.926332,93.7106452 L168.832076,94.2303663 L168.671926,94.7487783 C168.707273,94.7657969 168.718182,94.8295075 168.704218,94.9394736 L168.628289,95.3583924 L168.567197,95.5041412 L168.593815,95.5508332 L168.532287,95.696582 L168.523996,96.1128826 L168.346828,96.7259876 L168.33941,96.8656272 L168.313227,96.8778457 L168.278317,97.072032 L168.281372,97.2478906 C168.251262,97.2330539 168.213298,97.320765 168.167478,97.5101512 L168.176642,97.828704 L168.126896,97.9111787 L168.121223,97.9421612 L168.146969,97.9914714 L168.098095,98.0708914 L168.054021,98.5063924 L168.037875,98.5679211 C167.999911,98.5984673 167.943619,98.6298862 167.855908,98.6613051 L167.422152,98.6983969 L167.332259,98.7586164 L167.304331,98.7673439 L167.274658,98.742907 C167.217056,98.7603619 167.187383,98.7904717 167.186074,98.8332363 L167.183019,98.9501845 C167.128909,99.0034221 167.075235,99.0413866 167.021125,99.0579688 L166.817774,99.1194975 L166.821702,98.9597847 L166.764973,98.9135291 L166.532822,98.9833489 L166.413256,99.1168793 L166.384892,99.1251704 L166.209906,99.1448072 C166.137904,99.1827717 165.891789,99.2709192 165.644802,99.3603758 L165.771787,99.2133178 L165.539199,99.2840104 L164.978896,99.517034 C164.979768,99.4795058 164.882457,99.4873605 164.687398,99.5405981 L164.480993,99.6366004 L164.450883,99.6121634 L164.3623,99.7029292 L164.302953,99.7212569 L164.097857,99.7522394 L164.096984,99.7832219 L164.068184,99.8255502 C164.054656,99.8299139 164.044183,99.8373323 164.031965,99.8430051 L164.032401,99.8224956 L164.004473,99.7971859 L163.736103,99.9119522 L163.529262,99.8766059 L163.112089,100.066428 L162.903066,100.130139 L162.570113,100.456983 L162.360653,100.520694 L162.363272,100.391091 C162.463201,100.360544 162.51382,100.31298 162.514693,100.247524 L162.515566,100.213486 L162.48502,100.192104 L161.796858,100.464401 C161.797731,100.4212 161.697365,100.429928 161.496197,100.490584 L161.377067,100.526366 L161.28761,100.618005 L161.256191,100.627605 L161.226518,100.538585 C161.005713,100.627605 160.894874,100.704843 160.894001,100.770736 L160.4441,100.839246 L160.414863,100.882011 L160.409626,100.877647 L160.381698,100.855392 L160.32497,100.810882 L160.295733,100.819173 L160.203658,100.911684 C160.203658,100.91823 160.204967,100.922157 160.204967,100.928267 L160.107219,100.969286 L159.835359,101.020341 L159.623281,101.115471 L159.322619,101.175254 L159.200871,101.307475 L159.109233,101.335403 C159.110105,101.271256 159.090032,101.24551 159.049886,101.257729 L158.624421,101.386023 C158.527983,101.428787 158.453363,101.473734 158.389216,101.520426 L158.314596,101.45977 L158.101646,101.523917 C158.061063,101.536572 158.040553,101.575845 158.040117,101.641301 L157.858586,101.696284 L157.798802,101.649592 L157.278209,101.87127 L157.128096,101.883052 L157.096241,101.892652 L156.517609,102.101675 L156.395861,102.104294 L156.273676,102.206405 L156.241821,102.215569 L156.21302,102.19375 L156.120073,102.252661 L156.148873,102.34299 L156.148873,102.374409 L156.088217,102.392737 L156.088654,102.230842 L156.027561,102.184586 L155.507404,102.406701 L155.079321,102.502267 C154.983319,102.531067 154.910008,102.565104 154.845861,102.601323 L154.760332,102.533249 L154.544327,102.598269 C154.503308,102.610924 154.482799,102.649761 154.482799,102.716526 L154.298649,102.771946 L154.23712,102.725254 L153.71129,102.94955 L153.558995,102.961332 L153.526704,102.971368 L152.940217,103.182573 L152.816724,103.185628 L152.693666,103.288176 L152.661375,103.298212 L152.631701,103.275957 L152.537881,103.335304 L152.567991,103.42607 L152.567991,103.457052 L152.506462,103.475816 L152.505589,103.313922 L152.443188,103.266793 L151.916921,103.491526 L151.482729,103.588837 C151.379745,103.61982 151.301634,103.656475 151.235305,103.696185 L151.234869,103.649057 L151.204759,103.627238 L150.921553,103.74375 L150.640092,103.797424 L150.421032,103.895171 L150.109897,103.957573 L149.985967,104.092412 L149.891274,104.121213 C149.890838,104.056193 149.869456,104.030447 149.827564,104.043102 L149.387699,104.17576 C149.279915,104.223325 149.198749,104.273071 149.130675,104.324563 L149.130238,104.310599 L149.067401,104.264344 L149.037291,104.273071 L148.943034,104.367328 L148.755393,104.424056 C148.41764,104.526168 148.230436,104.648789 148.194217,104.791483 L148.101706,104.819411 L148.128324,104.613443 L148.064614,104.566751 L148.031886,104.576351 L147.907083,104.648789 L147.876537,104.657953 L147.843372,104.633516 C147.781844,104.65228 147.750861,104.683699 147.751734,104.727336 L147.123356,104.952069 L146.995935,104.923704 C146.954043,104.936796 146.933533,104.975633 146.934842,105.040216 L146.80873,105.078617 L146.711419,105.041962 L146.681309,105.050689 L146.586616,105.145382 L146.553888,105.023198 L146.458322,105.086035 L146.425594,105.096508 L146.394612,105.070762 L145.983984,105.261458 C145.879254,105.293313 145.815544,105.279785 145.79198,105.221311 L145.666304,105.291131 L145.66674,105.325605 L145.731324,105.372733 L145.68245,105.466117 L145.543247,105.49579 C145.372624,105.547282 145.234294,105.533318 145.128691,105.453462 L145.065417,105.472662 L145.003016,105.534628 L144.920105,105.559501 C144.877777,105.572592 144.857267,105.622775 144.859885,105.710923 C144.798357,105.72925 144.752537,105.748014 144.717191,105.766342 C144.655226,105.749323 144.54046,105.735796 144.539151,105.67514 L144.538278,105.643721 L144.506859,105.617975 L143.811279,105.895072 L143.140573,106.030348 L142.888785,106.141623 L142.790601,106.136823 C142.79191,106.192243 142.708563,106.249844 142.540123,106.3105 L142.05793,106.357628 L141.961491,106.421775 L141.930508,106.430939 L141.896035,106.406502 C141.859816,106.417412 141.837125,106.433557 141.822288,106.452321 L141.800469,106.435303 L141.098344,106.714146 L140.421092,106.85204 L140.166686,106.963751 L140.067629,106.958515 C140.069811,107.014371 139.985154,107.072845 139.815405,107.133937 L139.327539,107.181938 L139.230664,107.246958 L139.199682,107.255685 L139.171317,107.236049 L139.12288,106.670945 C139.133353,106.560979 139.180918,106.522578 139.265574,106.555306 L139.298739,106.567961 C139.314448,106.39952 139.306157,106.253335 139.278665,106.124168 L139.307902,106.135514 L139.344121,106.11675 C139.358522,105.96271 139.348049,105.836162 139.313575,105.736232 L139.31663,105.702195 L139.350231,105.682558 L139.268629,105.515427 C139.373358,105.555573 139.44536,105.482263 139.484634,105.295931 L139.371613,105.117454 L139.453651,104.946832 L139.454088,104.576787 L139.496852,104.118595 L139.496852,103.779969 C139.539617,103.795678 139.583254,103.677857 139.628201,103.424761 L139.555326,103.159445 L139.6138,102.874493 C139.617728,102.770636 139.612928,102.692526 139.600273,102.637106 C139.667474,102.633179 139.711985,102.532813 139.731621,102.322481 L139.713294,102.181096 L139.716785,102.146622 L139.750385,102.126112 L139.753004,102.094694 L139.725948,102.048438 L139.796641,101.632137 L139.797077,101.290893 L139.846388,101.105434 L139.836787,100.862374 L139.899189,100.542949 L139.921008,99.9708626 L139.986027,99.615218 L139.989518,99.2399366 L140.029665,99.1517892 L139.999118,99.1404434 L139.995191,99.135207 C140.002609,99.0038585 139.994755,98.8895285 139.964209,98.8013811 L139.967263,98.7664712 L140.000864,98.7450888 L139.918389,98.5762122 C140.024864,98.6150495 140.097739,98.5391204 140.137885,98.3475524 L140.023119,98.1668937 L140.106903,97.9914714 L140.107339,97.612699 L140.151413,97.1431609 L140.151849,96.7971166 C140.164068,96.8019167 140.176723,96.7918801 140.189377,96.7739888 L140.222542,96.7552247 C140.224724,96.733406 140.222542,96.7168238 140.223851,96.6958779 C140.243924,96.6347855 140.264434,96.5492563 140.28538,96.4314354 L140.211632,96.1613201 L140.215123,96.1443015 C140.28538,96.1329558 140.336435,96.0539721 140.366981,95.9056051 L140.271416,95.753747 C140.270543,95.7319283 140.268797,95.7131642 140.266616,95.6944002 L140.336435,95.5469059 L140.336872,95.1655152 L140.381818,94.6920497 L140.382255,94.3433871 C140.425456,94.3586602 140.470402,94.2351665 140.516221,93.9737786 L140.442038,93.7023541 L140.502257,93.4069291 C140.509676,93.2005244 140.486984,93.08794 140.434183,93.0696123 L140.241306,93.0024107 L140.204214,93.0233566 L140.222542,93.2048881 L140.171486,93.7486098 L140.053665,94.2980043 C140.091193,94.3115319 140.107775,94.3752424 140.102539,94.4895723 L140.06152,94.9276916 L140.01221,95.0843497 L140.042756,95.1284235 L139.993446,95.2846453 L140.004791,95.4692313 L139.974681,95.4862499 L139.993009,95.6664723 L139.959845,96.0225532 L139.89308,96.3603065 L139.894825,96.4248898 L139.824569,96.7499882 C139.862097,96.7635158 139.878679,96.8272263 139.873879,96.9406835 L139.833296,97.3748754 L139.783986,97.529788 L139.814969,97.5742982 L139.765222,97.7287745 L139.792714,98.1533661 L139.666165,98.7952718 L139.673147,99.0304773 C139.638674,99.0858967 139.605073,99.2285909 139.571909,99.4642327 L139.602455,99.4751421 L139.633001,99.5222704 L139.663547,99.5336162 L139.673147,99.4345593 L139.706748,99.4467778 L139.691475,99.6125998 L139.602018,99.8539145 L139.620346,99.9957359 L139.574527,100.150212 L139.586309,100.361853 L139.561872,100.62586 L139.536999,101.263838 L139.454524,101.436642 L139.451033,101.471115 L139.478525,101.514316 L139.426596,101.734249 L139.42005,102.140949 L139.289138,102.497903 L139.327539,102.557686 L139.339321,102.67027 L139.290011,103.196974 L139.174372,103.726731 C139.211464,103.740695 139.22761,103.803097 139.22281,103.914372 L139.183536,104.338527 L139.135098,104.48864 L139.165208,104.532713 L139.116771,104.683262 L139.144262,105.09869 L139.019459,105.72445 L139.02426,105.864526 L138.999823,105.878926 L138.981495,106.075295 L138.999823,106.249844 C138.967967,106.238062 138.937858,106.328391 138.90862,106.521269 L138.94484,106.838076 L138.902075,106.924478 L138.899457,106.955897 L138.92913,107.002152 L138.887238,107.085936 L138.880693,107.523619 L138.875892,107.55111 C138.966222,107.578602 139.053933,107.60653 139.139026,107.634022 L139.139026,107.63184 L139.14819,107.638385 L139.663111,107.483036 L139.825005,107.398816 L139.856861,107.424126 L140.178904,107.291905 L141.012815,107.106009 L141.138927,107.00128 L141.526863,106.95066 L141.683521,106.83633 L141.682648,106.804911 L141.650793,106.779602 L141.64992,106.748183 C141.735449,106.699745 141.780396,106.642144 141.805706,106.580179 L141.811815,106.765638 L141.877707,106.81233 L141.907817,106.803602 L141.909126,106.835021 C142.04222,106.789202 142.141713,106.748183 142.210224,106.711964 L142.387392,106.65829 L142.547541,106.574942 L142.579396,106.599816 L142.897949,106.468904 L143.724004,106.28519 L143.84968,106.180897 L144.232816,106.131587 L144.61028,105.969692 L144.611589,106.01682 C144.771301,105.961401 144.878649,105.914273 144.944978,105.872817 L144.946724,105.874563 L145.073272,105.802125 L145.359097,105.816089 L145.729578,105.637612 L145.96042,105.568228 L146.150242,105.542046 L146.180789,105.533318 L146.212644,105.491427 L146.402466,105.466117 L146.561306,105.38626 L146.717965,105.370551 L146.969316,105.262767 L147.255141,105.242257 L147.254704,105.20822 L147.283941,105.167637 L147.724679,105.065962 L148.037559,104.939414 L148.229563,104.947269 C148.565135,104.832502 148.803831,104.740864 148.952634,104.670171 L148.952634,104.670608 L148.985799,104.692426 L149.139839,104.579842 L149.925311,104.442384 L150.081533,104.360346 L150.301029,104.294453 L150.520089,104.262162 L150.614346,104.167905 L150.800677,104.143032 L150.894934,104.114231 L150.925044,104.074085 L150.924607,104.040048 L150.894061,104.017356 C150.953408,103.994228 151.004027,103.971973 151.048101,103.951464 L151.143667,104.019102 L151.359235,103.954082 L151.795609,103.855898 L151.980632,103.734586 L152.074452,103.737641 L152.198382,103.668694 L152.230674,103.659093 L152.260347,103.681348 L152.694539,103.484544 L153.096876,103.428252 L153.310699,103.331813 L154.605856,103.005405 C154.653857,102.990569 154.694876,102.961332 154.731532,102.922931 L154.741568,102.929913 L154.954082,102.865766 L155.384347,102.769327 L155.567624,102.648452 L155.660571,102.651506 L155.782756,102.583868 L155.814611,102.574268 L155.843848,102.596087 L156.27324,102.401464 L156.669904,102.346481 L156.881108,102.251352 L158.158811,101.929308 C158.19503,101.918835 158.226449,101.898325 158.256122,101.873016 L158.377434,101.784432 L159.134542,101.65352 L159.286837,101.5741 L159.498914,101.509516 L159.710119,101.479407 L159.802194,101.386895 L159.982417,101.362895 L160.073619,101.33584 L160.102856,101.29613 L160.103292,101.262092 L160.074491,101.239837 C160.146929,101.211037 160.203222,101.184854 160.252095,101.160417 C160.286569,101.211909 160.338934,101.227183 160.410499,101.2058 L160.470719,101.187473 L160.590721,101.120271 L160.62214,101.110671 L160.650505,101.132926 L160.830727,101.047833 L161.012258,101.023396 C161.150589,100.981504 161.260991,100.926521 161.343466,100.858883 L161.521943,100.86892 L161.549871,100.860629 L161.582163,100.820046 L161.613145,100.810882 L161.641073,100.833137 L161.761076,100.765936 L161.970972,100.702661 C162.608077,100.509784 163.09507,100.383672 163.43326,100.323889 L163.789777,100.151958 L163.908034,100.13363 L163.942944,100.180758 L164.3863,99.9826447 L164.911258,99.8875152 L165.060497,99.8120226 L165.062679,99.7286752 L165.647856,99.6008177 L165.675784,99.5925266 L166.05543,99.5104883 L166.174123,99.4415413 L167.015888,99.2504096 C167.106654,99.2058995 167.175165,99.1688077 167.234075,99.1356433 L167.23582,99.1369524 L167.700122,98.9960037 L167.848489,98.9183292 L167.875108,98.9432025 L167.990747,98.8952014 C168.038748,98.862037 168.08064,98.8445821 168.124714,98.8227634 C168.182751,98.8079267 168.241662,98.779126 168.294899,98.7747623 L168.296645,98.7477071 L168.335046,98.5063924 L168.36821,98.4130084 L168.36821,97.6777187 C168.388283,97.569498 168.438466,97.5350245 168.520505,97.5747345 L168.55236,97.5900076 C168.582906,97.4237492 168.586397,97.2771277 168.570688,97.1462155 L168.598616,97.1593068 L168.636144,97.1440337 C168.663635,96.9921756 168.664508,96.8651909 168.638326,96.762643 L168.644435,96.7290423 L168.679345,96.7120237 L168.61258,96.5387833 C168.713382,96.5876572 168.791493,96.520892 168.846476,96.3389242 L168.749165,96.1508471 L168.845167,95.9885161 L168.877458,95.6193439 L168.959497,95.166388 L168.988297,94.8295075 C169.029753,94.8487079 169.08299,94.7348144 169.149319,94.4865177 L169.099573,94.215966 L169.182484,93.9371232 C169.194702,93.8337026 169.196884,93.7555917 169.189029,93.6997359 C169.255794,93.7014814 169.309468,93.6050428 169.34656,93.3973289 L169.340451,93.2550711 L169.34656,93.2205976 L169.382343,93.203579 L169.387579,93.1721601 L169.364451,93.1237226 L169.470927,92.7152768 L169.500164,92.3753417 L169.564747,92.1942466 L169.576965,91.9511864 L169.665986,91.6383065 L169.736678,91.0701479 L169.831808,90.7214853 L169.86759,90.347513 L169.914719,90.2637292 L169.885045,90.2497653 L169.881991,90.2440924 C169.900318,90.1136167 169.902064,89.9992868 169.879372,89.908521 L169.885918,89.8740475 L169.921264,89.8561562 L169.85319,89.680734 C169.956174,89.7282987 170.035594,89.6584789 170.09145,89.4712746 L169.99283,89.2818884 L170.091014,89.1138845 L170.124178,88.7368576 L170.207962,88.2729923 L170.237635,87.9282571 C170.249854,87.93393 170.263381,87.9247661 170.277345,87.9077475 L170.312255,87.8920381 C170.316183,87.8706558 170.31531,87.8536372 170.318364,87.8331276 C170.343674,87.7742172 170.371166,87.6904334 170.402148,87.5752308 L170.351529,87.2998789 L170.356765,87.2832967 C170.427894,87.2776239 170.485496,87.2034403 170.528697,87.0581279 L170.445786,86.8988515 C170.447095,86.8765964 170.446658,86.8578324 170.446658,86.8390683" id="Fill-130" fill="#593D2D"></path>
                            <path d="M164.016517,116.57257 L163.931424,117.119782 L155.675233,119.796935 C155.580977,119.777298 155.485411,119.756789 155.391154,119.733225 C155.262424,119.705297 155.135875,119.675187 155.007145,119.643332 C152.449995,119.021063 149.824771,117.953693 147.193001,116.303327 C142.717116,113.497008 140.787908,110.392209 140.312697,107.2621 C140.293932,107.148207 140.279532,107.034749 140.266005,106.920856 C139.59268,101.254107 143.552335,95.5419748 145.673548,91.4178068 C145.73464,91.2964949 145.79486,91.1773649 145.85377,91.0586712 C146.93205,88.8942576 147.424715,87.2015639 146.328108,86.2349962 C143.650956,83.8763962 143.626955,81.2228076 142.126266,77.4154469 C142.079574,77.297626 142.032009,77.1793687 141.981826,77.0598023 C141.97528,77.0440929 141.970044,77.0270743 141.962189,77.0104921 C141.001731,74.6920385 139.463513,71.9507388 136.473044,68.6081161 C128.294528,59.4639049 117.408749,57.2885819 117.408749,57.2885819 C117.408749,57.2885819 117.707665,57.0795589 118.276696,56.7252234 L138.944665,51.3800817 L177.921129,68.1141411 L177.922002,68.1150138 L177.923747,68.1150138 L172.063685,113.830397 L164.016517,116.57257 Z" id="Fill-132" fill="#FF920F"></path>
                            <polygon id="Fill-134" fill="#000000" points="163.931293 117.119739 155.675102 119.796892 155.365277 119.897258 155.39146 119.733181 155.42986 119.498848 156.461884 113.103792 164.876479 111.1004 164.016386 116.572526"></polygon>
                            <path d="M154.63662,227.122964 C149.062819,226.82143 143.228066,225.938646 137.699211,226.067813 C133.872213,226.161633 131.541541,224.342827 131.541541,224.342827 L128.380014,221.236283 C127.748144,219.881342 127.763854,218.611495 128.616092,217.448122 L136.025281,217.013931 L143.700222,215.92736 C144.146632,215.641972 144.535878,215.308582 144.869267,214.925882 C146.273954,213.328755 146.734329,210.900335 146.442831,207.8191 C146.168788,206.54358 145.906091,205.254968 145.652558,203.954138 C145.190875,201.57721 144.763665,199.161009 144.360019,196.717753 C148.413495,198.885221 152.836142,198.569723 157.499232,196.703352 C157.791602,196.588586 158.095318,196.463347 158.390743,196.330253 C158.17212,197.972327 157.942151,199.631856 157.738801,201.318877 C157.666363,201.93591 157.595234,202.555997 157.530651,203.178702 L157.529342,203.178702 C157.376174,204.634881 157.244826,206.10546 157.152315,207.592186 C156.991293,210.1681 156.962056,212.797251 157.155806,215.422039 C159.298401,220.969658 160.581776,226.938378 154.63662,227.122964" id="Fill-136" fill="#FED194"></path>
                            <path d="M158.390525,196.330078 C158.171902,197.972589 157.942369,199.631682 157.739019,201.319139 C157.666581,201.936171 157.595452,202.556258 157.530433,203.178527 L157.529123,203.178527 C149.845891,207.154328 145.652776,203.9544 145.652776,203.9544 C145.191093,201.577036 144.763447,199.160834 144.360237,196.718014 C148.413713,198.885046 152.835924,198.569984 157.499014,196.703178 C157.79182,196.588848 158.0951,196.463609 158.390525,196.330078" id="Fill-138" fill="#F59D4E"></path>
                            <path d="M128.616135,217.448166 C128.616135,217.448166 124.15465,222.158384 131.724425,226.57405 C131.724425,226.57405 133.647524,228.171178 141.733966,228.3706 C149.819971,228.570023 155.771672,228.704426 157.363127,227.850879 C158.953709,226.997769 158.86338,223.851514 158.86338,223.851514 L128.616135,217.448166 Z" id="Fill-140" fill="#FFB113"></path>
                            <path d="M154.63662,227.122964 C149.062819,226.82143 143.228066,225.938646 137.699211,226.067813 C137.603209,226.070431 137.508515,226.071304 137.414695,226.071304 C134.742342,226.07174 132.186502,224.976005 130.280421,223.103089 L128.380014,221.236283 C127.748144,219.881342 127.763854,218.611495 128.616092,217.448122 L136.025281,217.013931 C136.025281,217.013931 140.398182,216.91531 144.869267,214.925882 C144.869267,214.925882 151.365563,220.3919 157.155806,215.422039 C159.298401,220.969658 160.581776,226.938378 154.63662,227.122964" id="Fill-142" fill="#070208"></path>
                            <path d="M142.685784,215.611905 C142.811023,215.577868 142.942808,215.646815 142.984264,215.771618 C143.484348,217.27798 144.254548,217.766719 144.262402,217.771519 C144.377169,217.842212 144.41426,217.993197 144.344441,218.108836 C144.274621,218.224475 144.124945,218.262003 144.008869,218.193056 C143.970905,218.170365 143.080266,217.623152 142.517344,215.926967 C142.474579,215.797801 142.544399,215.658597 142.673566,215.615833 C142.677493,215.614524 142.68142,215.613215 142.685784,215.611905" id="Fill-144" fill="#FFFFFF"></path>
                            <path d="M140.088008,216.144587 C140.213247,216.110113 140.345032,216.179497 140.386487,216.3043 C140.886135,217.810662 141.656771,218.298964 141.66419,218.3042 C141.779392,218.374893 141.816484,218.525878 141.746664,218.641517 C141.676844,218.757156 141.526732,218.794684 141.410656,218.725301 C141.373128,218.703046 140.48249,218.155397 139.919567,216.459649 C139.876803,216.330482 139.946623,216.190843 140.075353,216.148514 L140.088008,216.144587 Z" id="Fill-146" fill="#FFFFFF"></path>
                            <path d="M137.490188,216.568175 C137.615427,216.533701 137.747212,216.603085 137.788231,216.727451 C138.288315,218.233813 139.058951,218.722552 139.06637,218.727352 C139.181572,218.798045 139.218664,218.94903 139.148408,219.065105 C139.078588,219.180308 138.928912,219.217836 138.812836,219.148889 C138.775308,219.126198 137.88467,218.578985 137.321311,216.8828 C137.278983,216.75407 137.348803,216.61443 137.477533,216.572102 C137.48146,216.570357 137.485824,216.569048 137.490188,216.568175" id="Fill-148" fill="#FFFFFF"></path>
                            <path d="M211.218626,210.554421 C206.379678,213.338049 201.006608,215.776069 196.440393,218.896578 C193.282357,221.059682 190.336834,220.804404 190.336834,220.804404 L185.99317,219.922056 C184.725505,219.130038 184.046507,218.056122 184.127673,216.616525 L190.104247,212.216569 L195.9486,207.123651 C196.167223,206.641458 196.311663,206.149665 196.383228,205.647399 C196.690872,203.542332 195.754414,201.254861 193.830879,198.830369 C192.906203,197.90962 191.984145,196.972289 191.063396,196.019249 C189.381176,194.277682 187.706373,192.484186 186.036808,190.655343 C190.61655,190.264789 194.153795,187.591127 197.046953,183.485723 C197.229793,183.230008 197.416125,182.959893 197.591111,182.687159 C198.3024,184.183048 199.014126,185.699883 199.762943,187.22501 C200.038295,187.782259 200.316265,188.341254 200.601217,188.898503 L200.599908,188.898939 C201.264941,190.203697 201.955721,191.508454 202.687956,192.805793 C203.956494,195.05399 205.364236,197.273824 206.956564,199.36929 C211.775439,202.854607 216.103393,207.161179 211.218626,210.554421" id="Fill-150" fill="#FED194"></path>
                            <path d="M197.591285,182.686985 C198.302575,184.18331 199.0143,185.699709 199.763117,187.224835 C200.038033,187.782521 200.316003,188.341079 200.600955,188.898328 L200.600082,188.898765 C193.319187,191.852142 191.063135,196.019511 191.063135,196.019511 C189.38135,194.277943 187.706548,192.484011 186.036546,190.655605 C190.616724,190.264614 194.153533,187.590953 197.047127,183.485549 C197.229968,183.229834 197.4163,182.959718 197.591285,182.686985" id="Fill-152" fill="#F59D4E"></path>
                            <path d="M184.127629,216.616351 C184.127629,216.616351 182.952475,222.996571 191.705695,222.575906 C191.705695,222.575906 194.188661,222.86784 201.07813,218.629779 C207.968034,214.391717 213.031715,211.261609 213.900971,209.679754 C214.770664,208.097463 212.981096,205.508021 212.981096,205.508021 L184.127629,216.616351 Z" id="Fill-154" fill="#FFB113"></path>
                            <path d="M211.218626,210.554421 C206.379678,213.338049 201.006608,215.776069 196.440393,218.896578 C196.36141,218.950688 196.282426,219.003489 196.203879,219.054545 C193.9631,220.510288 191.222673,220.98419 188.603994,220.45225 L185.99317,219.922056 C184.725505,219.130038 184.046507,218.056122 184.127673,216.616525 L190.104247,212.216569 C190.104247,212.216569 193.717858,209.751057 196.383228,205.647399 C196.383228,205.647399 204.808732,206.691641 206.956564,199.36929 C211.775439,202.854607 216.103393,207.161179 211.218626,210.554421" id="Fill-156" fill="#070208"></path>
                            <path d="M194.926177,207.412007 C195.012142,207.314696 195.160509,207.301168 195.263057,207.383643 C196.503231,208.374211 197.415252,208.364611 197.424853,208.364174 C197.559256,208.360683 197.672713,208.467159 197.677077,208.602434 C197.681004,208.737274 197.576274,208.850295 197.441435,208.855531 C197.397361,208.857277 196.352682,208.883459 194.956286,207.767215 C194.849811,207.682995 194.832793,207.528082 194.917449,207.422044 C194.920067,207.418553 194.923122,207.415062 194.926177,207.412007" id="Fill-158" fill="#FFFFFF"></path>
                            <path d="M193.037508,209.273839 C193.12391,209.176528 193.27184,209.163 193.374388,209.245475 C194.614562,210.236043 195.52702,210.226443 195.536183,210.226007 C195.671023,210.222516 195.78448,210.328991 195.788844,210.464267 C195.792771,210.599106 195.687605,210.712127 195.553202,210.717363 C195.509128,210.719109 194.46445,210.745291 193.067617,209.629484 C192.961579,209.544827 192.944124,209.389914 193.02878,209.283876 C193.031835,209.280385 193.034453,209.27733 193.037508,209.273839" id="Fill-160" fill="#FFFFFF"></path>
                            <path d="M191.089579,211.044033 C191.175981,210.947158 191.324348,210.93363 191.426459,211.015668 C192.666634,212.006237 193.579091,211.996637 193.588255,211.9962 C193.723094,211.993146 193.836551,212.099184 193.840915,212.23446 C193.844843,212.369736 193.739676,212.482757 193.605273,212.487993 C193.5612,212.489739 192.516521,212.515485 191.119689,211.399677 C191.01365,211.315021 190.996631,211.160544 191.080851,211.054069 C191.083906,211.051015 191.086961,211.047524 191.089579,211.044033" id="Fill-162" fill="#FFFFFF"></path>
                            <path d="M106.145463,110.766312 C106.145463,110.766312 100.980108,112.043578 103.907303,115.875376 C107.257344,120.261368 112.497319,119.444476 113.706511,115.512749 C114.916575,111.580585 106.145463,110.766312 106.145463,110.766312" id="Fill-164" fill="#FED194"></path>
                            <path d="M201.352041,188.902779 C199.018315,188.756158 197.123144,189.100457 195.591908,189.70047 C190.920964,191.530185 189.633662,195.744683 189.633662,195.744683 C189.633662,195.744683 175.887017,178.013946 170.109429,168.980137 C164.331841,159.944583 163.322945,124.009644 163.322945,124.009644 C163.322945,124.009644 177.801825,106.943067 183.485592,114.156761 C184.949626,116.015277 185.737281,119.477466 186.103835,123.608616 C187.164223,135.508091 184.750203,152.95344 185.064392,153.564363 C199.415851,181.597883 201.352041,188.902779 201.352041,188.902779" id="Fill-166" fill="#59302A"></path>
                            <path d="M195.591821,189.700514 C190.920877,191.529793 189.633574,195.744726 189.633574,195.744726 C189.633574,195.744726 175.886929,178.013989 170.109341,168.980181 C164.331753,159.944627 163.322857,124.009687 163.322857,124.009687 C163.322857,124.009687 177.801737,106.943111 183.485505,114.156805 C184.949539,116.015321 185.737193,119.47751 186.103747,123.60866 C185.958871,123.708153 176.723021,130.051281 174.741448,139.409752 C172.745911,148.843279 174.036268,159.912771 182.288096,172.253856 C188.845047,182.059174 192.358728,185.892281 195.591821,189.700514" id="Fill-168" fill="#42211D"></path>
                            <path d="M146.977912,125.971623 C147.153771,126.002606 167.604425,129.969679 169.902806,129.909023 C172.201622,129.84924 160.868561,151.749964 163.359382,161.366332 C168.134183,145.868083 168.69056,145.451783 170.212631,142.733611 C172.685561,138.317509 176.56536,124.83967 185.936922,122.021132 L184.784022,116.963997 L146.977912,125.971623 Z" id="Fill-170" fill="#27140E"></path>
                            <path d="M162.860825,162.074741 C163.484839,174.645359 158.800804,199.402149 158.800804,199.402149 C154.636489,201.566563 150.398428,201.752894 147.458578,201.492816 C145.113069,201.285538 143.594052,200.793745 143.594052,200.793745 C143.594052,200.793745 141.213197,183.900846 140.061607,172.695641 C139.211987,164.426796 145.719192,141.087347 145.757593,129.424823 C145.770684,125.283637 145.794685,122.614339 145.794685,122.614339 C145.794685,122.614339 174.390691,101.404394 175.465916,115.74058 C176.54245,130.078947 162.23681,149.504123 162.860825,162.074741" id="Fill-172" fill="#663E36"></path>
                            <path d="M163.297199,162.074741 C163.921213,174.645359 158.800804,199.402149 158.800804,199.402149 C154.636489,201.566563 150.398428,201.752894 147.458578,201.492816 C154.896568,192.985274 153.933928,167.776837 155.364797,154.710498 C156.796976,141.64416 157.25255,135.696823 151.929227,133.519318 C146.605467,131.341377 145.757593,129.424823 145.757593,129.424823 C145.770684,125.283637 145.794685,122.614339 145.794685,122.614339 C145.794685,122.614339 174.390691,101.404394 175.465916,115.74058 C176.54245,130.078947 162.673184,149.504123 163.297199,162.074741" id="Fill-174" fill="#59302A"></path>
                            <path d="M146.108569,119.79039 L146.109878,123.568513 C146.109878,123.568513 148.653937,127.338346 160.510647,127.251071 C172.367357,127.163796 186.490593,120.246837 186.490593,120.246837 L185.482569,108.775008 C185.482569,108.775008 147.66555,110.962986 146.108569,119.79039" id="Fill-176" fill="#FFFFFF"></path>
                            <path d="M186.104533,115.854473 C186.104533,115.854473 174.786308,123.901641 159.135328,124.586311 C143.485221,125.270545 146.110009,123.568688 146.110009,123.568688 L146.1087,116.359358 L185.920819,113.764243 L186.104533,115.854473 Z" id="Fill-178" fill="#D2D7DB"></path>
                            <path d="M155.064485,24.7589284 C155.064485,24.7589284 152.9904,29.2191042 152.797523,33.5034214 C152.603773,37.7877386 152.63912,42.3679171 154.533854,44.9412129 C156.428589,47.5145088 159.777757,48.0700125 159.777757,48.0700125 C159.777757,48.0700125 159.557825,53.3854808 158.65104,54.6601284 C157.744256,55.9352124 160.068382,63.0284672 161.993663,62.662786 C163.918944,62.2971049 166.324672,61.7119277 167.867253,58.1026807 C169.410271,54.49387 169.353106,52.415422 169.353106,52.415422 C169.353106,52.415422 168.173588,48.1791059 168.94946,46.7683097 C169.726205,45.3570771 173.286578,41.3690577 173.87961,39.298028 C173.87961,39.298028 175.835874,39.4961417 177.157213,38.4156803 C178.478553,37.3343463 179.074639,33.8324472 177.129285,33.5226218 C177.129285,33.5226218 178.933254,27.8288175 178.077089,25.8132073 C177.220488,23.7971608 168.072785,19.3535672 166.44773,19.16069 C164.822674,18.9673764 155.064485,24.7589284 155.064485,24.7589284" id="Fill-180" fill="#FED194"></path>
                            <path d="M159.77767,48.0699689 C159.77767,48.0699689 161.826445,48.3361568 164.319884,47.5454477 C164.319884,47.5454477 165.770827,46.7743753 164.40585,49.0177726 C163.041309,51.2607335 159.463917,51.611578 159.463917,51.611578 L159.77767,48.0699689 Z" id="Fill-182" fill="#F59D4E"></path>
                            <path d="M155.907384,33.5805723 C155.774727,34.1522218 155.419082,34.5571766 155.112748,34.4864841 C154.805977,34.4153552 154.664155,33.8947613 154.796813,33.3235481 C154.929034,32.7523349 155.284679,32.3465074 155.59145,32.4176363 C155.89822,32.4887652 156.039605,33.0089227 155.907384,33.5805723" id="Fill-184" fill="#72120C"></path>
                            <path d="M163.327439,34.9237742 C163.195218,35.4954238 162.839573,35.9003786 162.532803,35.8296861 C162.226468,35.7585571 162.084647,35.2379633 162.216868,34.6667501 C162.349089,34.0955369 162.704734,33.6897093 163.011505,33.7608382 C163.318275,33.8319672 163.460097,34.3521246 163.327439,34.9237742" id="Fill-186" fill="#72120C"></path>
                            <path d="M162.569764,30.5404438 C162.545763,30.3728763 162.754786,30.2585464 162.920608,30.2258184 C163.449493,30.1215251 164.766905,29.9875583 165.081094,31.1609673 C165.339864,32.1275351 164.911345,31.8870931 164.85898,31.7343623 C164.778251,31.4991569 164.556137,30.9968907 164.285585,30.8000862 C163.660261,30.3453848 162.62431,30.9248891 162.569764,30.5404438" id="Fill-188" fill="#72120C"></path>
                            <path d="M154.0562,30.1096121 C153.954524,29.9747726 154.081946,29.7736043 154.210676,29.6645109 C154.622613,29.3175938 155.710929,28.5617945 156.554003,29.4362874 C157.247837,30.1563041 156.756917,30.1536858 156.63735,30.0459015 C156.452764,29.8792067 156.015081,29.5471263 155.683437,29.5056708 C154.915856,29.4105414 154.290096,30.4194374 154.0562,30.1096121" id="Fill-190" fill="#72120C"></path>
                            <path d="M158.293388,33.8179159 C158.690925,34.5994613 158.799146,35.2937318 158.814855,35.9626928 C158.818346,36.6303446 158.712307,37.2552317 158.467938,37.8857917 C158.396373,38.04725 158.33528,38.2017263 158.225314,38.4120584 C158.210041,38.4404227 158.14633,38.5538799 158.086984,38.645082 L158.015418,38.7528663 C158.094838,38.6381 158.15724,38.4993332 158.191277,38.3588209 C158.22095,38.2148175 158.237533,38.0891419 158.23186,37.9508114 C158.228805,37.8818644 158.219205,37.8137901 158.203932,37.748334 C158.191277,37.686369 158.161167,37.6069489 158.155494,37.5855666 C158.133676,37.5179287 158.102693,37.4511635 158.063419,37.3909439 C158.043783,37.3603978 158.022837,37.3315971 158.000582,37.3045419 L157.971345,37.2691957 C157.767558,37.0841732 157.812941,37.1958849 157.840869,37.2495589 C157.877524,37.3150149 157.956072,37.4083989 158.03811,37.499601 C158.388518,37.884919 158.82751,38.3274019 159.380832,38.9819625 L159.369922,39.1560756 C158.736744,39.1447299 158.107057,39.0251635 157.51097,38.7908308 C157.36173,38.7327931 157.2138,38.6690826 157.070233,38.5879171 C156.92623,38.505006 156.782663,38.4229678 156.654805,38.2658732 C156.621641,38.2344543 156.596331,38.1703074 156.571458,38.1209972 C156.556621,38.0607776 156.538293,37.9791757 156.563603,37.9124105 C156.574949,37.8775006 156.590222,37.8430271 156.606804,37.8102991 L156.629495,37.7653526 C156.644332,37.7374247 156.659169,37.7125514 156.673569,37.675896 C156.733352,37.5419292 156.787899,37.3974895 156.841573,37.254359 C157.069796,36.6831458 157.281874,36.0992777 157.489588,35.5149733 C157.691193,34.928487 157.904579,34.3450554 158.12713,33.7646783 L158.293388,33.8179159 Z" id="Fill-192" fill="#F59D4E"></path>
                            <path d="M156.661656,42.0263674 C158.025324,42.2847007 160.436725,42.475396 162.627758,41.2919504 C162.701941,41.2526768 162.76827,41.355661 162.700196,41.4049712 C161.458712,42.3043375 159.061712,43.5724395 156.549944,42.3606297 C156.36274,42.2707367 156.457433,41.9875302 156.661656,42.0263674" id="Fill-194" fill="#F59D4E"></path>
                            <path d="M164.431596,36.8814776 C164.527598,36.9853346 164.520616,37.1476656 164.416759,37.2436678 C164.312466,37.33967 164.149698,37.3331244 164.054132,37.2288311 C163.95813,37.1245378 163.965112,36.9626431 164.068969,36.8662045 C164.173262,36.7702023 164.335593,36.7771843 164.431596,36.8814776" id="Fill-196" fill="#F59D4E"></path>
                            <path d="M155.248154,35.6793117 C155.344593,35.7831686 155.337611,35.9454996 155.233318,36.0415019 C155.129461,36.1375041 154.966693,36.1309585 154.871127,36.0266651 C154.774689,35.9228082 154.781671,35.7604772 154.885964,35.664475 C154.989821,35.5680364 155.152152,35.5750183 155.248154,35.6793117" id="Fill-198" fill="#F59D4E"></path>
                            <path d="M165.316692,37.4759495 C165.38433,37.5496967 165.379967,37.664463 165.30622,37.7325373 C165.232472,37.8001752 165.117706,37.7953751 165.050068,37.7216279 C164.981557,37.6483172 164.986358,37.5335509 165.060105,37.4654766 C165.133852,37.3974023 165.249055,37.4022024 165.316692,37.4759495" id="Fill-200" fill="#F59D4E"></path>
                            <path d="M153.833344,34.7550285 C153.900981,34.8287757 153.896618,34.9435419 153.822871,35.0111799 C153.749123,35.0792542 153.634357,35.0744541 153.566283,35.0007069 C153.498208,34.9273961 153.503009,34.8121935 153.576756,34.7445555 C153.650503,34.6764812 153.765269,34.6812813 153.833344,34.7550285" id="Fill-202" fill="#F59D4E"></path>
                            <path d="M153.822696,37.0557653 C153.89077,37.1295124 153.88597,37.2442787 153.812659,37.312353 C153.738912,37.379991 153.62371,37.3751909 153.556072,37.3014437 C153.487997,37.2281329 153.492797,37.1133666 153.566545,37.0452923 C153.640292,36.977218 153.755058,36.9820181 153.822696,37.0557653" id="Fill-204" fill="#F59D4E"></path>
                            <path d="M165.515286,36.617297 C165.58336,36.6910441 165.578997,36.8058104 165.50525,36.8734483 C165.431502,36.9410863 165.3163,36.9362862 165.248662,36.862539 C165.180588,36.7892282 165.185388,36.6744619 165.259135,36.606824 C165.332882,36.5387497 165.447648,36.5435498 165.515286,36.617297" id="Fill-206" fill="#F59D4E"></path>
                            <path d="M163.289082,37.6924345 C163.385084,37.7962915 163.378102,37.9586225 163.274245,38.0550611 C163.169952,38.1510633 163.007185,38.1440813 162.911619,38.039788 C162.815617,37.9359311 162.822598,37.7736001 162.926455,37.6775978 C163.030749,37.5815956 163.19308,37.5881412 163.289082,37.6924345" id="Fill-208" fill="#F59D4E"></path>
                            <path d="M164.629753,38.3525371 C164.752374,38.4856311 164.744083,38.6924722 164.610553,38.8150932 C164.477459,38.9377142 164.270617,38.9289868 164.147996,38.7958928 C164.025812,38.6627988 164.034539,38.4555213 164.167197,38.3333366 C164.300291,38.2107156 164.507568,38.2194431 164.629753,38.3525371" id="Fill-210" fill="#F59D4E"></path>
                            <path d="M154.19981,35.7918524 C154.322431,35.9249464 154.31414,36.1317876 154.18061,36.2544086 C154.047516,36.3770296 153.840675,36.3683021 153.718054,36.2356445 C153.595869,36.1025505 153.604596,35.895273 153.737254,35.772652 C153.870348,35.6504674 154.077626,35.6587585 154.19981,35.7918524" id="Fill-212" fill="#F59D4E"></path>
                            <path d="M165.989581,38.105375 C166.112202,38.238469 166.103911,38.4453101 165.97038,38.5683675 C165.837286,38.6905522 165.630445,38.6818247 165.507824,38.5491671 C165.38564,38.4160731 165.394367,38.2087956 165.527025,38.0866109 C165.660119,37.9639899 165.867396,37.972281 165.989581,38.105375" id="Fill-214" fill="#F59D4E"></path>
                            <path d="M186.742031,113.845234 C186.742031,113.845234 186.337076,116.017939 173.782604,119.759843 C168.583212,121.309407 164.023106,122.194809 159.307652,122.433942 C152.637243,122.771259 154.823039,121.812545 145.293073,119.602749 C145.293073,119.602749 146.871437,95.1867666 145.383839,85.5180341 C143.638344,74.1723174 147.930953,60.7258977 147.930953,60.7258977 C147.930953,60.7258977 147.854151,60.218395 149.48837,59.2963374 C151.12259,58.3760252 157.326515,55.1084588 158.32232,55.0185658 C159.317688,54.9291092 168.308733,55.9253504 170.287251,51.7963822 C170.287251,51.7963822 173.983336,51.1723678 176.973369,52.7367676 C179.965147,54.3024765 183.399845,56.778461 184.44976,68.1224322 C185.49793,79.4646579 186.742031,113.845234 186.742031,113.845234" id="Fill-216" fill="#6D378F"></path>
                            <path d="M159.337849,122.39925 C159.327376,122.411032 159.317776,122.421941 159.307739,122.433723 C152.63733,122.771477 154.823126,121.812327 145.292724,119.602967 C145.292724,119.602967 146.389332,87.5438991 143.637995,79.8449576 C140.345556,70.6317993 147.930603,60.7261158 147.930603,60.7261158 C147.930603,60.7261158 147.854238,60.2186132 149.488458,59.2965555 C149.488458,59.2965555 155.914933,58.1013279 158.311498,68.1156684 C160.708499,78.1295725 169.219095,111.138626 159.337849,122.39925" id="Fill-218" fill="#582279"></path>
                            <path d="M156.702152,73.0383131 C156.702152,73.0383131 160.103248,83.5130278 157.683556,91.8608571 C155.263864,100.208686 145.911066,111.40429 145.911066,111.40429 L144.438741,89.8037913 L156.702152,73.0383131 Z" id="Fill-220" fill="#42115F"></path>
                            <path d="M155.167163,89.6384057 C152.296697,93.7734831 147.13396,94.1627284 147.13396,94.1627284 C147.13396,94.1627284 144.105526,97.2256356 140.988509,100.268469 C137.870182,103.311303 123.919314,115.950432 119.067275,117.237734 C115.130311,118.282849 107.738577,116.5295 105.499979,112.378277 L105.49867,112.378277 C104.978513,111.412582 104.736325,110.319902 104.879892,109.10111 C105.642237,102.637542 120.162136,97.2474542 128.490765,85.6124218 C136.818958,73.9769529 144.229893,62.9406252 147.930778,60.7260286 C149.695473,59.6708769 151.261182,60.230308 152.4167,61.1061101 L152.418009,61.1061101 C153.686984,62.0661323 154.460238,63.4066723 154.460238,63.4066723 C157.057098,68.7932695 158.410729,84.9648432 155.167163,89.6384057" id="Fill-222" fill="#FFFFFF"></path>
                            <path d="M155.737373,88.5964762 C155.566751,88.987467 155.376928,89.3370024 155.167033,89.638973 C152.297003,93.7731776 147.133829,94.1619866 147.133829,94.1619866 C147.133829,94.1619866 144.106268,97.2244573 140.988378,100.268164 C137.870051,103.311871 123.919183,115.950563 119.06758,117.238738 C115.129744,118.282108 107.738446,116.530067 105.499849,112.378844 C127.812073,109.033603 152.783123,85.1451964 155.052703,78.7942133 C157.320537,72.4432302 152.417442,61.1058046 152.417442,61.1058046 L152.418751,61.1058046 C153.687726,62.0671359 154.460107,63.4068032 154.460107,63.4068032 C156.890272,68.4456106 158.22994,82.9231815 155.737373,88.5964762" id="Fill-224" fill="#D2D7DB"></path>
                            <path d="M155.737373,88.5964762 C155.566751,88.987467 155.376928,89.3370024 155.167033,89.638973 C152.297003,93.7731776 147.133829,94.1619866 147.133829,94.1619866 C147.133829,94.1619866 152.041288,89.7602849 153.002619,87.5177603 C153.510122,86.3330057 154.980265,87.0984052 155.737373,88.5964762" id="Fill-226" fill="#949A9B"></path>
                            <path d="M158.410162,54.1672443 C158.410162,54.1672443 167.865944,54.7995498 169.669477,51.5040555 C169.669477,51.5040555 169.812607,50.7037461 171.676359,53.8473824 C171.676359,53.8473824 169.727951,57.9370769 161.894606,57.6577977 C154.061262,57.3785185 154.248902,56.4634428 154.248902,56.4634428 C154.248902,56.4634428 156.646339,55.025155 158.410162,54.1672443" id="Fill-228" fill="#FFFFFF"></path>
                            <path d="M148.025384,130.259519 C148.025384,130.259519 148.163278,184.717213 149.237194,195.744377" id="Stroke-230" stroke="#FFFFFF" stroke-width="1.28977454" stroke-linecap="round"></path>
                            <path d="M156.70045,26.9816852 C156.70045,26.8071358 156.696959,26.6640052 156.686486,26.5243656 L156.958783,26.5243656 L156.975802,26.8036448 L156.982784,26.8036448 C157.066567,26.6434956 157.262063,26.4859647 157.541342,26.4859647 C157.774802,26.4859647 158.137865,26.6260407 158.137865,27.2051086 L158.137865,28.2131319 L157.830658,28.2131319 L157.830658,27.2400185 C157.830658,26.9677213 157.729419,26.740807 157.439667,26.740807 C157.237626,26.740807 157.080531,26.8839375 157.028166,27.054996 C157.014639,27.0933969 157.00722,27.1457618 157.00722,27.1976902 L157.00722,28.2131319 L156.70045,28.2131319 L156.70045,26.9816852 Z" id="Fill-232" fill="#000000"></path>
                            <path d="M158.82607,27.3724579 C158.82607,27.7425028 159.038584,28.0213456 159.338809,28.0213456 C159.632052,28.0213456 159.851984,27.7455574 159.851984,27.3650396 C159.851984,27.0792148 159.708417,26.7165882 159.345791,26.7165882 C158.982728,26.7165882 158.82607,27.0517232 158.82607,27.3724579 M160.165737,27.355003 C160.165737,27.9794538 159.733291,28.251751 159.325281,28.251751 C158.867962,28.251751 158.515372,27.9166159 158.515372,27.3824945 C158.515372,26.8178269 158.885417,26.4861829 159.352773,26.4861829 C159.837584,26.4861829 160.165737,26.8383365 160.165737,27.355003" id="Fill-234" fill="#000000"></path>
                            <path d="M161.597697,27.5258869 C161.597697,27.5712698 161.604679,27.6131617 161.611661,27.6515625 C161.667517,27.8640765 161.85254,28.0106981 162.072472,28.0106981 C162.396698,28.0106981 162.585211,27.7458193 162.585211,27.3583194 C162.585211,27.0201298 162.407171,26.7303776 162.082509,26.7303776 C161.873486,26.7303776 161.67799,26.8804902 161.618643,27.1108955 C161.60817,27.1492964 161.597697,27.1942429 161.597697,27.2365711 L161.597697,27.5258869 Z M161.294418,27.0759856 C161.294418,26.8595442 161.286999,26.6849948 161.280017,26.5244092 L161.555806,26.5244092 L161.56977,26.8141614 L161.576752,26.8141614 C161.702427,26.608193 161.900977,26.4860083 162.176765,26.4860083 C162.585211,26.4860083 162.892418,26.8316163 162.892418,27.3443554 C162.892418,27.9517877 162.522373,28.2515764 162.124401,28.2515764 C161.900977,28.2515764 161.705918,28.1538287 161.604679,27.9866976 L161.597697,27.9866976 L161.597697,28.9039551 L161.294418,28.9039551 L161.294418,27.0759856 Z" id="Fill-236" fill="#000000"></path>
                            <mask id="mask-12" fill="white">
                                <use xlink:href="#path-11"></use>
                            </mask>
                            <g id="Clip-239"></g>
                            <polygon id="Fill-238" fill="#000000" mask="url(#mask-12)" points="163.280573 28.2133064 163.587343 28.2133064 163.587343 25.7360128 163.280573 25.7360128"></polygon>
                            <path d="M164.062118,27.899161 C164.152884,27.9585078 164.313469,28.0213456 164.467073,28.0213456 C164.69006,28.0213456 164.795226,27.909634 164.795226,27.7699944 C164.795226,27.6233728 164.707515,27.5435164 164.481037,27.4597327 C164.177757,27.351512 164.034626,27.1839445 164.034626,26.9814671 C164.034626,26.7091699 164.254122,26.4861829 164.616749,26.4861829 C164.787808,26.4861829 164.93792,26.5350567 165.032613,26.5909126 L164.955375,26.8143359 C164.889483,26.7724441 164.766862,26.7165882 164.610203,26.7165882 C164.428672,26.7165882 164.327433,26.8208815 164.327433,26.9465572 C164.327433,27.0861968 164.428672,27.1490346 164.648604,27.2328183 C164.941847,27.34453 165.091524,27.4907152 165.091524,27.7425028 C165.091524,28.0388006 164.861118,28.24826 164.460091,28.24826 C164.275068,28.24826 164.104446,28.2024407 163.985316,28.1330573 L164.062118,27.899161 Z" id="Fill-240" fill="#000000" mask="url(#mask-12)"></path>
                            <path d="M185.679243,30.2915799 C185.178722,26.8848103 184.30292,11.9612655 181.91552,9.20731092 C181.806863,8.56409606 151.262884,7.99070099 150.868402,11.8818454 C150.423301,16.2796198 145.274964,19.9914146 145.103905,20.0586162 C142.318968,21.1639508 145.160634,46.2833676 148.427328,48.2601405 C152.177087,50.5297203 172.040819,48.0498084 177.54611,45.7400823 C182.248473,43.7702913 186.288857,34.4493487 185.679243,30.2915799" id="Fill-241" fill="#FF9137" mask="url(#mask-12)"></path>
                            <path d="M146.361273,22.8450806 C145.985119,18.8505156 160.803061,19.5858053 170.872821,18.0999528 C180.942581,16.6145366 180.003941,9.19792889 180.530644,14.7904945 C181.057347,20.3826237 171.906154,28.7675447 167.037532,28.4201912 C162.168474,28.0728377 146.562005,24.9754571 146.361273,22.8450806" id="Fill-242" fill="#D37751" mask="url(#mask-12)"></path>
                            <path d="M185.38264,30.3699963 C184.881683,26.9632266 184.306106,12.0113175 181.918705,9.25736299 C181.810048,8.61414813 180.118227,15.9941005 176.1673,19.0456619 C173.207377,21.3318238 145.278149,20.0414667 145.107091,20.1082319 C142.322154,21.2140029 144.455585,44.5198505 147.721842,46.4957507 C151.472038,48.7657668 172.044441,48.0998605 177.549731,45.7905707 C182.251658,43.819907 185.991817,34.5273287 185.38264,30.3699963" id="Fill-243" fill="#FFA963" mask="url(#mask-12)"></path>
                            <path d="M177.549208,45.7875161 C182.251135,43.8172888 186.291955,34.4963462 185.682341,30.3390137 C185.181384,26.9322441 184.305582,12.0086993 181.918618,9.25430837 C181.809961,8.61152988 178.906766,14.3851906 176.016663,19.0570076" id="Fill-244" fill="#FF9137" mask="url(#mask-12)"></path>
                            <path d="M185.685221,30.0686802 C185.184264,26.662347 184.308899,11.7383658 181.921062,8.98441123 C181.812841,8.34119637 178.95983,14.6476694 176.070163,19.3194864 C176.070163,19.3194864 179.905015,22.3108282 182.966177,26.3826314 C186.192724,30.6756761 185.685221,30.0686802 185.685221,30.0686802" id="Fill-245" fill="#D37751" mask="url(#mask-12)"></path>
                            <path d="M152.625636,30.9120161 C152.787967,30.792886 152.995681,30.9408167 153.100847,31.091802 C153.435545,31.5718131 154.38204,33.669898 153.0655,33.8274289 C151.872018,33.9701231 152.35072,32.8874799 152.437559,32.4995437 C152.637854,31.603232 152.252972,31.1860588 152.625636,30.9120161" id="Fill-246" fill="#1C2D41" mask="url(#mask-12)"></path>
                            <path d="M162.677984,39.3266978 C163.572114,39.242914 161.371481,45.1636326 157.859982,41.6818067 C156.805703,40.6366917 157.436263,40.9526262 158.912952,40.813423 C160.560699,40.658074 162.106771,39.3808081 162.677984,39.3266978" id="Fill-247" fill="#1C2D41" mask="url(#mask-12)"></path>
                            <path d="M149.852262,26.0582312 C149.771097,25.4883271 150.203107,25.277995 151.506555,24.6465622 C152.221772,24.3005178 153.436636,25.0109343 152.386285,24.9463509 C150.401657,24.8246027 150.66959,26.0455763 149.852262,26.0582312" id="Fill-248" fill="#1C2D41" mask="url(#mask-12)"></path>
                            <path d="M162.006798,25.4168927 C161.992397,25.2676529 164.40118,25.1144857 165.071887,25.7808284 C166.009218,26.7124863 165.184471,26.7129227 165.132543,26.5745922 C165.05225,26.3616418 164.474055,25.9540688 164.150702,25.7625007 C163.403194,25.319145 162.039526,25.7590097 162.006798,25.4168927" id="Fill-249" fill="#1C2D41" mask="url(#mask-12)"></path>
                            <path d="M163.257139,30.2204074 C163.41947,30.1012773 163.627184,30.2487716 163.73235,30.399757 C164.067049,30.8802044 164.957688,32.9726164 163.697004,33.1358202 C162.505268,33.2894237 162.98266,32.1954348 163.069062,31.8074986 C163.269358,30.9116233 162.884476,30.4940137 163.257139,30.2204074" id="Fill-250" fill="#1C2D41" mask="url(#mask-12)"></path>
                            <path d="M165.276197,7.40709478 C157.756169,8.12842054 150.567784,10.1776315 150.486183,12.0937485 C150.300287,16.5094142 145.785128,19.6430139 145.618434,19.7198156 L159.783561,16.6896365 L165.276197,7.40709478 Z" id="Fill-251" fill="#FFA963" mask="url(#mask-12)"></path>
                            <path d="M182.083,8.45116254 C174.538971,8.85524461 167.925291,8.11079104 166.712172,9.59664356 C164.397646,12.4330727 161.61009,17.8938534 161.645,18.0740758 C162.31047,21.5039732 175.843292,19.2082111 175.843292,19.2082111 L182.083,8.45116254 Z" id="Fill-252" fill="#FFA963" mask="url(#mask-12)"></path>
                            <path d="M185.106939,10.4148443 C187.45332,17.9366181 184.829405,21.6017209 184.829405,21.6017209 C184.829405,21.6017209 184.960317,19.4530167 181.76868,16.1562133 C180.888514,15.2476832 179.114219,14.0467827 177.005224,12.7830445 C171.464151,9.46398594 163.61466,5.71771757 163.61466,5.71771757 L161.208932,5.63306106 C161.208932,5.63306106 163.7639,1.20648606 168.671795,0.109442529 C172.242642,-0.688685003 182.760121,2.89263411 185.106939,10.4148443" id="Fill-253" fill="#6D378F" mask="url(#mask-12)"></path>
                            <path d="M177.002039,5.61896619 C178.170211,9.98706712 177.005093,12.7829135 177.005093,12.7829135 C171.464456,9.46429141 163.61453,5.71802303 163.61453,5.71802303 L161.209238,5.63293015 C161.209238,5.63293015 163.685658,0.765181316 168.671665,0.109311617 C168.703083,0.104947879 168.734502,0.101020516 168.765485,0.0970931525 C172.504335,-0.385536181 176.028489,1.97699113 177.002039,5.61896619" id="Fill-254" fill="#FFFFFF" mask="url(#mask-12)"></path>
                            <path d="M179.139179,14.1214463 C172.396769,10.3088491 152.054335,13.236044 151.493159,13.5161959 C150.620411,13.9525697 149.31129,15.6980645 149.31129,15.6980645 C149.31129,15.6980645 141.998103,9.47668442 142.159125,7.51474818 C142.423567,4.29431013 148.646256,-0.251831273 157.512061,2.29833674 C166.37743,4.84806838 179.139179,14.1214463 179.139179,14.1214463" id="Fill-255" fill="#6D378F" mask="url(#mask-12)"></path>
                        </g>
                    </g>
                </g>
            </g>
        </g>
    </g>
</svg>